<?xml version="1.0" encoding="UTF-8" standalone="no"?>
<!-- Created with Inkscape (http://www.inkscape.org/) -->

<svg
   xmlns:dc="http://purl.org/dc/elements/1.1/"
   xmlns:cc="http://creativecommons.org/ns#"
   xmlns:rdf="http://www.w3.org/1999/02/22-rdf-syntax-ns#"
   xmlns:svg="http://www.w3.org/2000/svg"
   xmlns="http://www.w3.org/2000/svg"
   xmlns:sodipodi="http://sodipodi.sourceforge.net/DTD/sodipodi-0.dtd"
   xmlns:inkscape="http://www.inkscape.org/namespaces/inkscape"
   id="svg2"
   version="1.1"
   inkscape:version="0.91 r13725"
   width="300"
   height="600"
   viewBox="0 0 300 600"
   sodipodi:docname="photographer.svg">
  <metadata
     id="metadata8">
    <rdf:RDF>
      <cc:Work
         rdf:about="">
        <dc:format>image/svg+xml</dc:format>
        <dc:type
           rdf:resource="http://purl.org/dc/dcmitype/StillImage" />
        <dc:title></dc:title>
      </cc:Work>
    </rdf:RDF>
  </metadata>
  <defs
     id="defs6" />
  <sodipodi:namedview
     pagecolor="#ffffff"
     bordercolor="#666666"
     borderopacity="1"
     objecttolerance="10"
     gridtolerance="10"
     guidetolerance="10"
     inkscape:pageopacity="0"
     inkscape:pageshadow="2"
     inkscape:window-width="1684"
     inkscape:window-height="926"
     id="namedview4"
     showgrid="false"
     inkscape:zoom="0.97568195"
     inkscape:cx="213.5"
     inkscape:cy="330.69786"
     inkscape:window-x="483"
     inkscape:window-y="0"
     inkscape:window-maximized="0"
     inkscape:current-layer="svg2" />
  <g
     id="g83698"
     transform="matrix(0.90421901,0,0,0.90421901,-39.436653,-1.7296795)">
    <g
       id="g83680">
      <path
         inkscape:connector-curvature="0"
         id="path83694"
         d="m 187,628.38812 c -8.99328,-1.66611 -12.39475,-5.64211 -10.1463,-11.86008 C 177.48417,614.78452 178,613.05245 178,612.679 178,612.30555 172.80265,612 166.45034,612 c -8.18074,0 -12.3749,-0.42675 -14.37882,-1.46301 -4.60253,-2.38007 -5.26793,-6.27151 -2.12559,-12.431 1.60472,-3.14552 1.88101,-5.37416 1.57568,-12.71017 -0.20364,-4.8927 -0.67282,-10.48866 -1.04264,-12.43546 -0.58758,-3.09321 -0.21876,-4.08259 2.92432,-7.84461 3.98662,-4.77167 4.41394,-7.54803 2.14954,-13.96602 -0.79595,-2.25594 -1.95345,-8.70266 -2.57223,-14.32603 -0.61878,-5.62337 -2.25566,-13.49828 -3.63751,-17.4998 -2.36743,-6.85555 -2.49227,-8.24365 -2.16291,-24.04969 0.31367,-15.05285 0.58751,-17.27491 2.66851,-21.65336 3.24935,-6.83669 3.65887,-10.68945 1.73231,-16.29761 -3.72193,-10.83442 -2.99066,-37.51729 1.36808,-49.91868 2.79413,-7.9498 2.58477,-12.69733 -1.03659,-23.50635 -2.16371,-6.45826 -3.1891,-11.63654 -3.42706,-17.3069 -0.18676,-4.45022 -0.81409,-9.44131 -1.39406,-11.09131 -4.90301,-13.94877 -6.33188,-21.39956 -6.82367,-35.58165 -0.57206,-16.49706 0.21163,-21.64423 4.91518,-32.28243 5.72145,-12.94041 5.09934,-18.89303 -5.1874,-49.63592 -7.27287,-21.73564 -7.989,-27.3399 -7.99266,-62.54907 L 132,148.40186 l 2.75,-4.14664 c 1.5125,-2.28065 5.07701,-7.47867 7.92113,-11.55116 2.84412,-4.07249 5.69778,-9.38442 6.34148,-11.80429 1.17337,-4.41111 4.70937,-11.1084 6.1948,-11.7331 1.5909,-0.66907 0.7227,-3.4671 -2.23426,-7.20058 -3.55917,-4.493803 -4.44788,-6.971799 -6.00336,-16.739071 -1.53558,-9.642377 -0.1499,-15.403941 5.5751,-23.180799 C 163.74992,46.825259 176.19835,38.588643 188,38.587017 c 5.55542,-7.65e-4 8.43532,0.784114 19.8176,5.401016 14.85978,6.027459 18.49266,8.969984 19.66874,15.931091 C 228.02803,63.125381 228.61042,64 230.20368,64 c 1.11534,0 4.24233,0.786498 6.94886,1.747772 l 4.92096,1.747773 8.49241,-4.497773 c 5.57183,-2.950971 8.67852,-5.219396 9.03359,-6.596103 C 260.15738,54.238596 265.70167,51 268.84684,51 271.30736,51 276,56.134136 276,58.826159 c 0,1.219197 1.18258,4.003714 2.62795,6.187817 2.20304,3.329025 2.5509,4.772882 2.15145,8.930016 -0.26859,2.795342 -0.019,5.416402 0.57206,6.007465 1.47528,1.475283 -0.38567,3.103867 -4.50881,3.945818 -3.25256,0.664178 -3.36105,0.848328 -4.02551,6.832936 -0.37557,3.382699 -1.21247,7.139957 -1.85978,8.349462 -2.87487,5.371747 -2.9468,7.986357 -0.42064,15.290367 1.35629,3.92148 3.22386,7.57996 4.15018,8.12996 2.85609,1.69581 6.42809,5.82268 8.4322,9.74205 1.69371,3.31235 1.84334,5.14964 1.303,16 -0.49113,9.86243 -0.29889,13.11308 0.98374,16.63368 1.79582,4.92926 2.19519,20.13271 0.60681,23.10063 -1.82054,3.4017 -7.51491,5.91316 -21.41593,9.44532 -7.59416,1.92962 -14.43077,4.02563 -15.19247,4.65779 -2.21956,1.84207 -0.66702,6.59846 8.13434,24.92053 3.87368,8.06397 7.46141,18.89045 7.46141,22.51586 0,1.74105 -0.87566,7.39973 -1.9459,12.57484 -1.07025,5.17512 -2.23988,15.9343 -2.59918,23.9093 -0.56503,12.54135 -0.30392,16.97584 1.933,32.82878 1.42244,10.08082 3.28016,20.37261 4.12827,22.87064 0.8481,2.49803 1.30671,5.27508 1.01913,6.17123 -0.73279,2.28352 -7.66893,4.88733 -16.74797,6.28716 -7.22582,1.11409 -7.77813,1.37699 -8.75,4.1649 -0.57054,1.63665 -1.05407,10.89609 -1.0745,20.57651 -0.0204,9.68043 -0.46915,23.45078 -0.99714,30.60078 -0.52799,7.15 -1.22534,20.2 -1.54967,29 -0.41343,11.21741 -1.13685,17.79347 -2.42018,22 -1.00677,3.3 -2.12826,7.8 -2.4922,10 -0.36394,2.2 -1.52615,5.9697 -2.58269,8.37712 -2.38477,5.43393 -2.55277,16.27449 -0.39631,25.57298 2.02213,8.71925 3.42938,31.46839 3.45474,55.84821 0.0185,17.77722 -0.18357,20.22088 -1.9794,23.93783 -1.1,2.27673 -1.99975,4.6175 -1.99944,5.20169 7.3e-4,1.41111 12.12182,12.20518 15.36507,13.6829 1.96207,0.89398 3.59081,0.87141 7.05224,-0.0977 6.82965,-1.91218 8.82039,-0.97288 11.46596,5.41002 1.25233,3.02146 2.12517,6.28176 1.93964,7.24511 -0.74512,3.86909 -8.41683,7.30686 -24.3436,10.90861 -6.81771,1.54178 -48.4506,2.91839 -54.47987,1.80139 z M 169.90623,365.42711 c 0.23491,-0.23491 -1.5604,-0.46411 -3.98956,-0.50934 -2.42917,-0.0452 -5.65417,-0.28562 -7.16667,-0.53421 -1.5125,-0.24859 -2.75,-0.0165 -2.75,0.51581 0,1.60776 12.35725,2.07671 13.90623,0.52774 z M 178,363.05902 c 0,-0.51754 -0.45,-1.2191 -1,-1.55902 -0.55,-0.33992 -1,0.0835 -1,0.94098 0,0.85746 0.45,1.55902 1,1.55902 0.55,0 1,-0.42344 1,-0.94098 z m -8.75,-0.7213 c -0.6875,-0.27741 -1.8125,-0.27741 -2.5,0 -0.6875,0.27741 -0.125,0.50439 1.25,0.50439 1.375,0 1.9375,-0.22698 1.25,-0.50439 z m 4.47917,0.0581 c -0.3323,-0.33229 -1.1948,-0.36781 -1.91667,-0.0789 -0.79773,0.31922 -0.56078,0.55618 0.60417,0.60416 1.05416,0.0434 1.64479,-0.19293 1.3125,-0.52522 z M 182.5,362 c -0.33992,-0.55 -1.04148,-1 -1.55902,-1 -0.51754,0 -0.94098,0.45 -0.94098,1 0,0.55 0.70156,1 1.55902,1 0.85746,0 1.2809,-0.45 0.94098,-1 z m 4,0 c 0.33992,-0.55 -0.0835,-1 -0.94098,-1 -0.85746,0 -1.55902,0.45 -1.55902,1 0,0.55 0.42344,1 0.94098,1 0.51754,0 1.2191,-0.45 1.55902,-1 z m 40.40521,-217.5737 c 1.68227,-1.41553 3.59567,-4.36605 4.25201,-6.55671 0.66831,-2.23062 2.37802,-4.82659 3.88599,-5.90036 5.20109,-3.7035 5.52574,-6.65582 1.84908,-16.81528 -1.79896,-4.97092 -3.63566,-8.81256 -4.08156,-8.53697 -0.4459,0.27558 -0.81073,3.10475 -0.81073,6.28705 0,6.88146 -0.76307,7.76539 -10,11.58384 -8.30387,3.43274 -9.13343,4.29949 -9.4867,9.91195 -0.44501,7.06988 3.50959,11.93549 10.15997,12.5005 0.64531,0.0548 2.54968,-1.05848 4.23194,-2.47402 z"
         style="fill:#bb8970" />
      <path
         inkscape:connector-curvature="0"
         id="path83692"
         d="m 183.67262,627.02984 c -2.10506,-0.40709 -4.7873,-1.70008 -5.96053,-2.87331 -1.96922,-1.96922 -2.03896,-2.48532 -0.90747,-6.71582 0.67412,-2.52047 0.9673,-5.00073 0.65151,-5.51169 C 177.14034,611.41806 171.35327,611 164.59597,611 c -10.63248,0 -12.50873,-0.24612 -13.94098,-1.82874 -2.24085,-2.47611 -2.08385,-7.9083 0.36734,-12.70982 1.36386,-2.67161 1.81679,-4.90052 1.39107,-6.84561 -0.56363,-2.57521 -1.2804,-11.13326 -1.5849,-18.92314 -0.0747,-1.90982 0.93049,-3.88056 3.14408,-6.1644 3.64721,-3.76297 3.6827,-4.62395 0.76377,-18.52829 -0.86596,-4.125 -1.82104,-10.2 -2.1224,-13.5 -0.59287,-6.49217 -1.69527,-10.91491 -3.61442,-14.50088 -0.85144,-1.59092 -1.17358,-7.86491 -1.06628,-20.76633 0.14247,-17.1288 0.33419,-18.93072 2.61026,-24.53214 2.80824,-6.91113 3.02833,-10.52979 0.98533,-16.20065 -1.03507,-2.8731 -1.45342,-8.82823 -1.48495,-21.13813 -0.0394,-15.39112 0.21095,-18.01755 2.45611,-25.76511 3.11043,-10.73343 3.13189,-15.09694 0.12099,-24.59335 -3.02353,-9.53628 -4.98924,-20.26779 -4.17969,-22.81848 0.34468,-1.08598 -0.0157,-3.48435 -0.80088,-5.32972 C 146.85526,355.00985 144.95515,349 143.41795,343.5 c -2.28312,-8.16887 -2.87175,-12.58777 -3.21458,-24.13208 -0.47455,-15.97988 0.35655,-21.27606 4.97951,-31.732 5.72145,-12.94041 5.09934,-18.89303 -5.1874,-49.63592 -7.27303,-21.73612 -7.989,-27.33959 -7.99266,-62.55422 L 132,148.39156 l 2.94829,-4.44578 c 1.62156,-2.44518 5.42791,-8.01117 8.45856,-12.36887 3.03065,-4.3577 5.80884,-9.3077 6.17375,-11 0.85746,-3.97655 3.83958,-9.85081 5.84631,-11.51625 2.15494,-1.78844 2.06394,-2.13021 -1.97589,-7.42101 -2.71069,-3.550087 -3.89171,-6.439278 -5,-12.231769 -2.64873,-13.843702 -1.39278,-19.743236 6.24845,-29.350423 10.22429,-12.854839 21.05452,-19.94941 31.75652,-20.802777 5.22119,-0.416332 7.40539,0.02679 16.04401,3.254953 18.84275,7.041339 23.43089,10.371144 24.45891,17.750852 0.51751,3.715031 0.88039,4.207471 2.93322,3.980504 1.28846,-0.142455 3.75232,0.587239 5.47526,1.621543 1.72293,1.034304 4.39976,2.179374 5.94851,2.544601 5.51978,1.301681 7.78502,13.832207 3.53882,19.575504 -1.8731,2.533503 -1.99151,3.272898 -0.93327,5.827714 l 1.21201,2.926061 10.18327,-0.277579 c 5.95495,-0.162322 10.7023,0.150855 11.43327,0.754238 0.70338,0.580612 1.24991,3.274058 1.24979,6.159368 -3.2e-4,8.19617 3.69743,17.11775 8.84922,21.35052 6.84719,5.62574 8.1706,9.87395 7.47603,23.99828 -0.4563,9.27901 -0.23392,12.93146 1.04787,17.21026 2.24952,7.50927 2.13169,19.88504 -0.21607,22.69451 -2.838,3.39612 -7.86028,5.50313 -20.15684,8.45645 -16.78018,4.03017 -17.37054,4.31483 -16.6298,8.01854 0.5892,2.94602 1.71526,5.81857 5.64448,14.399 C 262.27307,237.53425 265,244.98058 265,249.49725 c 0,1.75129 -0.87566,7.41834 -1.9459,12.59345 -1.07025,5.17512 -2.23988,15.9343 -2.59918,23.9093 -0.56503,12.54135 -0.30392,16.97584 1.933,32.82878 1.42244,10.08082 3.28684,20.39227 4.1431,22.91433 1.91856,5.65098 1.51806,6.79172 -3.0554,8.70263 C 260.83018,351.55107 246.93927,354 243.31497,354 c -0.13062,0 -0.92992,2.33168 -1.77623,5.1815 -1.12494,3.78807 -1.55426,10.04056 -1.59645,23.25 -0.0317,9.93768 -0.46603,23.2435 -0.96509,29.5685 -0.49905,6.325 -1.18769,18.925 -1.53031,28 -0.43875,11.6212 -1.16383,18.27411 -2.45223,22.5 -1.00611,3.3 -2.12907,7.77907 -2.49546,9.95349 -0.3664,2.17441 -1.52861,5.64399 -2.58269,7.71016 -2.32592,4.55919 -2.47292,11.66151 -0.44275,21.3926 2.17943,10.44653 3.5436,31.65914 3.64936,56.74697 0.0773,18.32801 -0.18928,22.91936 -1.51468,26.09149 -0.88464,2.11725 -1.60844,4.51334 -1.60844,5.32465 0,1.4537 7.82186,9.0782 12.89751,12.5721 2.18609,1.50482 3.83735,1.68862 10.32033,1.14876 l 7.71784,-0.64269 2.5484,5.76239 c 2.81332,6.36141 2.62294,8.48471 -0.97197,10.84019 -3.72513,2.4408 -18.04161,6.26948 -28.01211,7.49133 -9.91118,1.21459 -44.77157,1.30951 -50.82738,0.1384 z M 169.90623,365.42711 c 0.23491,-0.23491 -1.5604,-0.46411 -3.98956,-0.50934 -2.42917,-0.0452 -5.65417,-0.28562 -7.16667,-0.53421 -1.5125,-0.24859 -2.75,-0.0165 -2.75,0.51581 0,1.60776 12.35725,2.07671 13.90623,0.52774 z M 178,363.05902 c 0,-0.51754 -0.45,-1.2191 -1,-1.55902 -0.55,-0.33992 -1,0.0835 -1,0.94098 0,0.85746 0.45,1.55902 1,1.55902 0.55,0 1,-0.42344 1,-0.94098 z m -8.75,-0.7213 c -0.6875,-0.27741 -1.8125,-0.27741 -2.5,0 -0.6875,0.27741 -0.125,0.50439 1.25,0.50439 1.375,0 1.9375,-0.22698 1.25,-0.50439 z m 4.47917,0.0581 c -0.3323,-0.33229 -1.1948,-0.36781 -1.91667,-0.0789 -0.79773,0.31922 -0.56078,0.55618 0.60417,0.60416 1.05416,0.0434 1.64479,-0.19293 1.3125,-0.52522 z M 182.5,362 c -0.33992,-0.55 -1.04148,-1 -1.55902,-1 -0.51754,0 -0.94098,0.45 -0.94098,1 0,0.55 0.70156,1 1.55902,1 0.85746,0 1.2809,-0.45 0.94098,-1 z m 4,0 c 0.33992,-0.55 -0.0835,-1 -0.94098,-1 -0.85746,0 -1.55902,0.45 -1.55902,1 0,0.55 0.42344,1 0.94098,1 0.51754,0 1.2191,-0.45 1.55902,-1 z m 9.95729,-5.9309 c 0.31644,-0.512 0.11799,-1.21356 -0.44098,-1.55902 -0.55897,-0.34546 -1.01631,0.0734 -1.01631,0.9309 0,1.75653 0.60006,2.01516 1.45729,0.62812 z M 235.57143,352 c 0,-1.1 -0.35357,-2 -0.78572,-2 -0.95698,0 -1.04303,2.40935 -0.11904,3.33333 0.91153,0.91154 0.90476,0.92152 0.90476,-1.33333 z m -3.02357,-0.78547 c -0.32186,-0.32186 -2.15693,-1.12554 -4.07792,-1.78595 -3.85127,-1.324 -5.7128,-0.16411 -2.49795,1.55643 1.11541,0.59695 2.02801,0.82216 2.02801,0.50048 0,-0.32168 0.77789,-0.14954 1.72864,0.38253 1.72551,0.96564 3.92785,0.45514 2.81922,-0.65349 z m -6.73762,-205.56739 c 2.67128,-1.48233 6.17355,-6.42312 6.18317,-8.72283 0.004,-0.86662 1.19146,-2.66662 2.63963,-4 1.44817,-1.33337 3.44223,-3.73 4.43126,-5.32584 1.77441,-2.86312 1.75342,-3.0269 -1.5857,-12.36933 -1.86115,-5.20728 -3.66701,-9.75089 -4.01302,-10.09689 -0.34601,-0.34601 -1.30092,0.27019 -2.12203,1.36932 -1.06089,1.42011 -1.32303,3.32492 -0.90584,6.58223 0.72087,5.62838 -0.0398,6.43473 -10.60091,11.23802 -4.21476,1.9169 -8.16784,4.42821 -8.78462,5.58068 -1.06402,1.98815 -1.30507,2.01868 -4.70893,0.59645 -4.33715,-1.81218 -4.34861,-1.81284 -4.3219,-0.24895 0.0117,0.6875 1.82828,2.52857 4.03675,4.09127 2.20847,1.5627 4.75694,4.0377 5.66327,5.5 4.43963,7.16307 8.57334,8.86652 14.08887,5.80587 z M 200.36163,129.5 c 0.4135,-1.07758 -0.10298,-1.5 -1.834,-1.5 -1.32528,0 -2.70239,-0.47375 -3.06025,-1.05279 -0.35787,-0.57903 -1.17192,-0.86275 -1.80902,-0.63048 -0.6371,0.23226 -1.94862,-0.26623 -2.91449,-1.10775 -0.96587,-0.84153 -2.09017,-1.19602 -2.49843,-0.78775 -0.86776,0.86775 1.98962,3.21829 6.25456,5.14513 3.91972,1.77087 5.16201,1.75681 5.86163,-0.0664 z m 24.08916,-15.75 c 1.7663,-1.55101 3.17428,-4.57996 4.53222,-9.75 2.54755,-9.699213 2.51802,-12.837772 -0.14748,-15.675071 -2.099,-2.234278 -2.10943,-2.364789 -0.34501,-4.314451 2.52738,-2.792727 3.39057,-2.539327 5.07393,1.489522 3.72771,8.921668 5.59119,-0.319959 2.26845,-11.25 C 234.67083,70.427418 233,69.950264 233,73.440983 c 0,1.342541 -0.45,2.719098 -1,3.059017 -0.55,0.339919 -1,1.491476 -1,2.559017 C 231,80.466647 230.3078,81 228.48095,81 c -2.24352,0 -2.4459,-0.300792 -1.85027,-2.75 l 0.66879,-2.75 -2.25614,2 c -3.762,3.334889 -6.0324,8.7925 -5.36602,12.898903 C 220.49985,95.467651 218.09591,98 212.46164,98 c -3.30479,0 -4.33629,0.412672 -4.72244,1.889302 -0.27174,1.039118 -0.10611,2.501618 0.36806,3.249998 2.47378,3.90442 -1.09862,7.96058 -3.78069,4.29264 -1.41804,-1.93929 -0.97233,-7.02248 0.77878,-8.88194 C 207.80631,95.681931 204.84292,95.157075 202,98 c -2.56753,2.56753 -2.55092,6.99979 0.0453,12.08883 2.48478,4.87057 4.49787,5.76587 13.14892,5.84778 5.57125,0.0528 7.12407,-0.31406 9.25655,-2.18661 z m 43.51144,-32.709359 c -1.90423,-1.627648 -4.17999,-2.977648 -5.05724,-3 -1.77131,-0.04513 -4.25961,-2.580098 -5.2398,-5.338063 -0.35135,-0.988583 -2.00425,-2.273416 -3.67311,-2.855184 -1.66886,-0.581769 -3.51037,-1.94731 -4.09223,-3.034535 -1.21054,-2.261906 0.0536,-3.537398 6.35015,-6.407367 2.31289,-1.054208 3.75,-2.399565 3.75,-3.510572 0,-2.375701 8.46297,-6.252697 10.8547,-4.97268 3.25431,1.741654 5.34582,4.870624 4.67289,6.990824 -0.43959,1.385024 0.15458,3.122431 1.81993,5.321663 2.01402,2.659678 2.53467,4.654611 2.8073,10.75636 l 0.3347,7.491087 -2.99476,0.640598 c -5.21046,1.11455 -5.9925,0.943732 -9.53253,-2.082131 z"
         style="fill:#6c879a" />
      <path
         inkscape:connector-curvature="0"
         id="path83690"
         d="m 186.12025,626.92043 c -2.40886,-0.47324 -5.49806,-1.59318 -6.86488,-2.48876 -2.58114,-1.69123 -2.60266,-2.04741 -0.64555,-10.68167 l 0.62333,-2.75 -12.66203,0 c -12.1103,0 -12.76898,-0.10695 -15.11657,-2.45455 -2.96961,-2.9696 -3.06451,-4.92616 -0.48441,-9.98689 1.71338,-3.36068 1.89606,-5.18026 1.40167,-13.96144 -0.95367,-16.93907 -1.03007,-16.32476 2.45385,-19.73093 3.61822,-3.53748 4.06544,-7.0891 1.72717,-13.71646 -0.79595,-2.25594 -1.95169,-8.72502 -2.56833,-14.37572 -0.61664,-5.65071 -2.25981,-13.58646 -3.65148,-17.63501 -2.40018,-6.98241 -2.50846,-8.21679 -2.10521,-24 0.39476,-15.45078 0.61605,-17.05165 3.09866,-22.41751 3.1037,-6.70828 3.35217,-10.94469 0.95889,-16.34937 -1.41274,-3.19034 -1.70069,-6.86538 -1.63539,-20.87212 0.0682,-14.62613 0.38821,-17.97747 2.29183,-24 3.98452,-12.60597 4.11225,-15.91807 0.96298,-24.97067 -2.87129,-8.25354 -5.24585,-20.16845 -4.31848,-21.66897 0.2874,-0.46501 2.3908,0.10763 4.67424,1.27256 3.60454,1.8389 5.34358,2.0521 13.19558,1.61778 4.97413,-0.27514 10.16888,-0.96896 11.54388,-1.54183 1.375,-0.57287 4.56784,-1.5682 7.09521,-2.21185 4.67293,-1.19006 8.32417,-4.10162 16.62032,-13.25331 4.32683,-4.77305 5.45504,-8.691 3.8854,-13.49296 -0.61074,-1.8684 -1.06599,-2.07222 -2.68875,-1.20375 -1.07443,0.57502 -2.41393,0.76094 -2.97665,0.41315 -0.56273,-0.34778 -1.56593,-0.20858 -2.22933,0.30933 -2.0772,1.62163 -5.59086,2.07443 -6.60597,0.85129 -1.00267,-1.20815 -0.90346,-4.60964 0.23686,-8.12077 0.35725,-1.1 2.34006,-2.9 4.40623,-4 5.10074,-2.71556 5.80973,-7.3768 1.00668,-6.61842 -1.74389,0.27535 -0.61309,-4.10462 1.18083,-4.57374 2.37926,-0.62219 3.24477,-2.65893 2.26054,-5.31955 -0.68422,-1.84963 -0.89985,-1.74773 -2.64287,1.24889 -1.04383,1.79455 -2.21985,3.48782 -2.61338,3.76282 -1.73792,1.21446 -8.19484,13.51744 -9.58896,18.27074 -0.84354,2.87609 -2.36154,6.12926 -3.37332,7.22926 -1.01179,1.1 -2.29131,3.19241 -2.84338,4.6498 -0.85325,2.25245 -0.71328,2.72577 0.93339,3.15638 2.29454,0.60004 2.60992,2.69382 0.40577,2.69382 -0.84227,0 -1.79041,0.675 -2.10699,1.5 -0.31659,0.825 -1.21075,1.5 -1.98702,1.5 -0.77628,0 -3.67361,1.18286 -6.4385,2.62859 -4.46812,2.33631 -5.85193,2.57565 -12.44537,2.15251 -4.08005,-0.26184 -8.04909,-0.9996 -8.82008,-1.63946 -0.77099,-0.63987 -1.67605,-3.16435 -2.01126,-5.60996 -0.33521,-2.44561 -1.54318,-7.21824 -2.68439,-10.60585 -2.77783,-8.24587 -4.0086,-27.8521 -2.34939,-37.42583 1.30609,-7.53621 1.40907,-7.89039 4.99201,-17.17056 4.26966,-11.0588 3.20035,-19.46178 -6.15007,-48.32944 -2.93945,-9.075 -5.62011,-19.2 -5.95702,-22.5 -0.3369,-3.3 -0.85415,-7.6875 -1.14944,-9.75 -0.65744,-4.59198 0.47512,-4.75993 4.55896,-0.67609 3.12258,3.12257 6.57994,3.60714 6.57994,0.92222 0,-0.8481 1.24168,-1.69347 2.9175,-1.98631 C 151.17016,202.5288 153.40995,200 151.08333,200 150.4875,200 150,199.5178 150,198.92843 c 0,-0.58936 1.0125,-0.98955 2.25,-0.8893 4.08899,0.33122 4.75,-0.0152 4.75,-2.48944 0,-1.34767 0.74508,-2.86728 1.65574,-3.37691 1.50281,-0.84101 1.45033,-1.21508 -0.56809,-4.04969 C 156.67169,186.13456 155.00561,185 153.50146,185 c -1.67376,0 -2.4555,-0.6439 -2.68191,-2.20901 -0.1988,-1.37426 -1.23624,-2.42386 -2.74541,-2.77758 -3.66973,-0.86012 -3.67272,-2.90878 -0.006,-4.18697 l 3.24841,-1.1324 -5.22302,-2.64671 c -10.48347,-5.31237 -15.36011,-15.66915 -11.46652,-24.35202 1.03021,-2.2974 2.99811,-5.53268 4.37311,-7.1895 1.375,-1.65681 2.95,-3.73109 3.5,-4.60951 0.55,-0.87841 2.20305,-3.40092 3.67345,-5.60558 1.4704,-2.20465 3.19145,-5.98447 3.82455,-8.39959 1.37388,-5.24101 5.68613,-12.20438 7.03979,-11.36778 2.29893,1.42082 0.63977,-3.491 -2.9784,-8.8173 -6.1365,-9.033548 -8.34465,-25.339141 -4.45999,-32.933872 2.63433,-5.150263 11.00762,-15.256922 16.33696,-19.718899 12.69736,-10.630826 22.73586,-11.600929 41.56364,-4.016636 11.93541,4.807877 18.5,9.603439 18.5,13.51462 0,4.456019 1.70867,7.337682 3.99616,6.739491 1.15826,-0.302893 3.54546,0.159411 5.30489,1.027342 1.75942,0.86793 4.4661,1.842438 6.01485,2.165571 5.51116,1.149862 7.79621,13.740537 3.53882,19.498971 -1.8746,2.535521 -1.99205,3.271612 -0.93082,5.833649 l 1.21448,2.931998 10.41823,-0.299004 c 7.18295,-0.20615 10.64852,0.06584 11.15979,0.875858 0.40786,0.646174 0.75955,4.324861 0.78154,8.174861 0.031,5.43211 0.6393,8.28791 2.71569,12.75 1.47165,3.1625 3.12781,5.75 3.68036,5.75 1.44454,0 7.05106,6.05529 8.33299,9 0.59858,1.375 1.15089,8.8 1.22736,16.5 0.0765,7.7 0.52851,16.0149 1.00454,18.47755 l 0.8655,4.47755 -8.0729,-7.28941 c -7.73695,-6.98607 -8.25347,-7.27505 -12.41219,-6.94435 -4.64059,0.36901 -3.71942,1.22727 2.41071,2.24606 2.0625,0.34277 3.75,1.16865 3.75,1.83527 0,0.66663 2.49056,4.06777 5.53457,7.55809 3.66986,4.20792 5.35063,6.92558 4.98862,8.06618 -0.30028,0.94608 0.15886,3.13299 1.02031,4.8598 3.02786,6.06948 -0.58375,8.8199 -16.83495,12.82065 -19.51066,4.80317 -20.14863,5.25693 -18.36292,13.06053 0.54486,2.38102 0.62838,4.6673 0.18561,5.08061 -0.44278,0.41331 -0.98467,0.25278 -1.20421,-0.35672 -2.79103,-7.74877 -10.02507,-3.14009 -10.96537,6.98585 -1.69308,18.23254 -1.66631,19.44082 0.51251,23.13365 1.16921,1.98165 2.12583,4.70229 2.12583,6.04585 0,1.7959 0.54281,2.44284 2.04966,2.44284 1.12731,0 3.32842,0.66127 4.89135,1.46949 2.68447,1.3882 2.8746,1.34671 3.43668,-0.75 0.32725,-1.22072 0.60115,-7.43725 0.60866,-13.8145 0.0122,-10.32683 0.23307,-11.79359 2.01978,-13.41054 1.10337,-0.99854 2.15943,-1.63078 2.3468,-1.40499 1.60499,1.93414 6.11196,11.80798 8.15199,17.85929 2.51156,7.45001 2.5832,10.27556 0.44503,17.55125 C 260.36698,264.88645 258,287.60568 258,297.41316 c 0,10.28688 -0.30069,10.77321 -5,8.08684 -1.375,-0.78602 -3.67949,-1.44508 -5.1211,-1.46456 -1.83402,-0.0248 -3.3193,-1.0544 -4.94623,-3.42875 -2.27,-3.31285 -4.93267,-3.83555 -4.93267,-0.96832 0,2.01059 -2.74071,2.82171 -4.5265,1.33964 -2.39002,-1.98355 -9.17078,-2.20928 -9.89219,-0.32932 -0.47973,1.25016 -0.90314,1.3291 -2.04516,0.38132 -0.79209,-0.65739 -2.3239,-0.91476 -3.40401,-0.57195 -1.0801,0.34281 -2.26544,0.13528 -2.63407,-0.46119 -1.06588,-1.72463 1.35785,-3.84731 3.69507,-3.23611 1.44708,0.37842 1.89262,0.18702 1.40421,-0.60324 C 220.20389,295.52089 218.59067,295 217.01241,295 c -1.57825,0 -3.52295,-0.6534 -4.32155,-1.452 -1.26933,-1.26933 -1.42433,-1.11207 -1.23211,1.25 0.12095,1.4861 0.57364,3.51112 1.006,4.50004 0.54427,1.24491 0.20916,2.24492 -1.08932,3.25067 -1.8239,1.41271 -1.81764,1.50183 0.22775,3.24336 2.87037,2.44396 4.61293,5.93229 3.99417,7.9957 -0.28324,0.94455 0.72827,3.50564 2.25605,5.71223 2.27111,3.28017 3.3883,4.02194 6.20805,4.1219 6.37286,0.22591 6.93855,0.37404 6.93855,1.81683 0,0.9516 -1.60826,1.6754 -4.75,2.13775 -2.6125,0.38447 -5.60707,1.29064 -6.65461,2.01372 -2.59618,1.79205 -5.59539,0.1 -5.59539,-3.15677 0,-2.91561 -2.3796,-4.19321 -4.51273,-2.42286 -2.3453,1.94642 -1.81473,4.86914 1.01273,5.57879 2.9343,0.73646 3.08749,1.26057 0.84722,2.89869 -1.9487,1.42493 -1.0042,3.51195 1.58935,3.51195 1.0002,0 2.37874,0.675 3.06343,1.5 1.05059,1.26588 0.85134,1.5 -1.27659,1.5 -1.9371,0 -3.01589,0.94855 -4.65476,4.0928 l -2.13329,4.09281 4.28232,-0.3277 c 3.24699,-0.24847 5.37028,0.31685 8.78232,2.33826 5.96394,3.53324 14.44999,6.80383 17.6536,6.80383 2.28973,0 2.51359,0.30898 1.99242,2.75 -0.32293,1.5125 -0.85025,14.225 -1.17183,28.25 -0.32158,14.025 -1.05601,28.425 -1.63207,32 -0.57605,3.575 -1.00605,12.8 -0.95556,20.5 0.0937,14.29374 -1.0202,20.52449 -6.52552,36.5 -3.32113,9.63738 -3.78476,15.56515 -1.95939,25.05222 2.50272,13.00755 3.65331,27.5258 4.28189,54.02911 0.53391,22.51193 0.46307,23.79882 -1.56214,28.37712 -1.16677,2.63768 -2.1214,5.41992 -2.1214,6.18275 0,1.8662 9.44377,10.79844 14.86172,14.05671 3.86694,2.32553 4.72575,2.49143 7.57099,1.46258 1.76511,-0.63827 4.55017,-1.16049 6.18902,-1.16049 2.54359,0 3.30165,0.66258 5.179,4.52675 2.97158,6.1164 2.7847,7.95001 -1.05073,10.30934 -4.50671,2.77227 -19.57756,6.89515 -29.72377,8.13142 -9.98659,1.21682 -39.62727,1.18642 -45.90598,-0.0471 z M 162.63837,346.5 c 0.85525,-2.22874 -0.39162,-4.77266 -1.88131,-3.83834 -0.69138,0.43363 -2.04456,0.65887 -3.00706,0.50052 -1.17766,-0.19374 -1.75,0.36401 -1.75,1.70541 0,1.81255 0.66973,2.19249 5.28138,2.99623 0.42977,0.0749 1.04041,-0.53882 1.35699,-1.36382 z m 8.53568,-4.28518 c 0.0957,-1.49315 0.23914,-4.06482 0.31869,-5.71482 0.0796,-1.65 0.46953,-3.97463 0.86663,-5.16584 0.41025,-1.23071 0.27014,-2.4451 -0.32452,-2.81262 -1.71592,-1.0605 -7.79116,1.6546 -9.07658,4.05643 -1.52093,2.84189 -0.40993,5.04176 1.67314,3.31297 1.13536,-0.94227 1.71758,-0.93927 2.66097,0.0137 0.94483,0.95443 0.8268,1.43477 -0.54238,2.20731 -1.96795,1.11039 -2.26705,4.05339 -0.70801,6.96648 1.45746,2.7233 4.89692,0.80412 5.13206,-2.86363 z M 155.73466,336.75 c 1.71984,-1.7875 3.4319,-4.4875 3.80457,-6 0.44154,-1.79199 1.33655,-2.75 2.56918,-2.75 1.47356,0 1.885,-0.71824 1.86175,-3.25 L 163.94032,321.5 160,326 c -2.16717,2.475 -3.95375,5.11024 -3.97016,5.85608 -0.0164,0.74584 -1.15484,2.241 -2.52984,3.32258 -2.37667,1.86949 -3.41515,4.82134 -1.69617,4.82134 0.44211,0 2.21098,-1.4625 3.93083,-3.25 z m 46.25881,-5.65617 c 2.19684,-1.73541 2.2894,-2.04805 0.77804,-2.62801 -2.37905,-0.91293 -7.44389,1.51972 -8.64287,4.15119 -0.54717,1.2009 -0.7429,2.4354 -0.43496,2.74334 0.6519,0.6519 4.72245,-1.44057 8.29979,-4.26652 z M 180.76208,329.75 c 0.55384,-0.6875 1.31969,-2.7125 1.7019,-4.5 0.57217,-2.67588 0.39123,-3.25 -1.02428,-3.25 -2.32406,0 -4.36915,2.89976 -4.4079,6.25 -0.0337,2.9164 1.94748,3.71307 3.73028,1.5 z M 166,320 c 0,-0.55 -0.19844,-1 -0.44098,-1 -0.24254,0 -0.7191,0.45 -1.05902,1 -0.33992,0.55 -0.14148,1 0.44098,1 C 165.52344,321 166,320.55 166,320 Z M 156,201.5 c 0,-0.825 -0.42344,-1.5 -0.94098,-1.5 -1.26098,0 -2.1641,1.56159 -1.36517,2.36052 C 154.82004,203.4867 156,203.04641 156,201.5 Z m 81.18605,-30.11745 c 3.95746,-2.49823 4.271,-2.54378 6.88442,-1 1.50596,0.8896 3.45618,1.61745 4.33382,1.61745 2.13447,0 2.03069,-2.56463 -0.16969,-4.1933 -0.97096,-0.71868 -2.3214,-2.56632 -3.00095,-4.10585 -0.97607,-2.21128 -1.58796,-2.60195 -2.9135,-1.86014 -1.24856,0.69873 -2.12133,0.39145 -3.41069,-1.20085 C 237.48233,158.87743 236.10285,158.5 231.08835,158.5 226.88434,158.5 225,158.11313 225,157.25 c 0,-0.6875 -0.85186,-1.25 -1.89301,-1.25 -1.04116,0 -2.15187,-0.67456 -2.46824,-1.49903 -0.5366,-1.39836 -8.2035,-5.37206 -13.44705,-6.96952 -3.0236,-0.92115 -2.58621,-4.53707 0.74922,-6.19381 2.24964,-1.11742 2.66038,-0.91401 5.24152,2.5958 2.2214,3.02064 3.68131,3.95198 7.05908,4.50329 4.09042,0.66764 4.40906,0.52662 8.07396,-3.57323 2.09851,-2.34756 4.06946,-5.53818 4.37988,-7.09028 0.31042,-1.5521 1.79652,-3.69934 3.30245,-4.77166 1.50593,-1.07232 3.31077,-3.33232 4.01075,-5.02224 1.13869,-2.74904 0.92034,-4.12062 -2.07372,-13.02594 C 236.0648,109.39129 234.03295,105 233.32939,105 c -2.18618,0 -3.55716,3.99548 -2.8923,8.42908 0.77957,5.19853 -0.12577,6.12885 -10.60029,10.89274 -4.21476,1.9169 -8.15645,4.40694 -8.75932,5.53341 -1.09404,2.04424 -1.10892,2.04325 -7.8368,-0.52198 -14.59194,-5.56365 -20.39826,-7.50901 -20.90366,-7.0036 -0.29021,0.29021 2.77774,2.65693 6.81766,5.25939 4.03993,2.60246 8.5646,5.55956 10.05483,6.57135 1.49023,1.01179 2.92343,1.83961 3.1849,1.83961 0.26146,0 1.72694,0.47584 3.25661,1.05742 3.96671,1.50814 1.32579,2.90775 -5.52346,2.92727 -4.65221,0.0133 -5.20619,0.21564 -4.13225,1.50966 1.01886,1.22765 0.81763,1.84637 -1.12755,3.46673 -1.30227,1.08481 -2.92744,1.98735 -3.61149,2.00565 -1.64018,0.0439 -7.66671,8.39646 -6.37004,8.82868 0.55159,0.18386 1.89826,-0.14489 2.99259,-0.73056 4.52489,-2.42164 5.36319,-0.61783 1.94428,4.18359 l -2.17691,3.05718 2.61568,-0.6565 c 2.36928,-0.59465 2.59788,-0.39925 2.4269,2.07428 -0.16413,2.37439 0.36877,2.9265 4.08329,4.23046 3.56164,1.25028 4.62136,1.28154 6.37247,0.18795 1.28073,-0.79983 4.29652,-1.18943 7.72794,-0.99836 3.09514,0.17235 6.19348,-0.0431 6.8852,-0.4788 0.73446,-0.46262 1.89459,-0.15524 2.78869,0.73885 1.01946,1.01946 2.51534,1.33416 4.47693,0.94184 2.19105,-0.43821 3.07798,-0.17358 3.46131,1.03274 0.28347,0.89206 0.72628,2.29692 0.98402,3.12192 0.68276,2.18547 3.02177,1.84679 7.71743,-1.11745 z m 16.85979,-9.2969 C 253.43192,160.93854 252.47446,160 251.91813,160 c -0.55632,0 -0.20299,1.08093 0.78519,2.40206 2.124,2.83967 2.92994,2.64972 1.34252,-0.31641 z M 224.45079,113.75 c 1.7663,-1.55101 3.17428,-4.57996 4.53222,-9.75 2.54755,-9.699213 2.51802,-12.837772 -0.14748,-15.675071 -2.099,-2.234278 -2.10943,-2.364789 -0.34501,-4.314451 2.52738,-2.792727 3.39057,-2.539327 5.07393,1.489522 3.72771,8.921668 5.59119,-0.319959 2.26845,-11.25 C 234.67083,70.427418 233,69.950264 233,73.440983 c 0,1.342541 -0.45,2.719098 -1,3.059017 -0.55,0.339919 -1,1.491476 -1,2.559017 C 231,80.466647 230.3078,81 228.48095,81 c -2.24352,0 -2.4459,-0.300792 -1.85027,-2.75 l 0.66879,-2.75 -2.25614,2 c -3.762,3.334889 -6.0324,8.7925 -5.36602,12.898903 C 220.49985,95.467651 218.09591,98 212.46164,98 c -3.30479,0 -4.33629,0.412672 -4.72244,1.889302 -0.27174,1.039118 -0.10611,2.501618 0.36806,3.249998 2.47378,3.90442 -1.09862,7.96058 -3.78069,4.29264 -1.41804,-1.93929 -0.97233,-7.02248 0.77878,-8.88194 C 207.80631,95.681931 204.84292,95.157075 202,98 c -2.56753,2.56753 -2.55092,6.99979 0.0453,12.08883 2.48478,4.87057 4.49787,5.76587 13.14892,5.84778 5.57125,0.0528 7.12407,-0.31406 9.25655,-2.18661 z M 250,348.44098 c 0,-0.85746 0.45734,-1.27636 1.01631,-0.9309 0.55897,0.34546 0.75742,1.04702 0.44098,1.55902 C 250.60006,350.45614 250,350.19751 250,348.44098 Z m -10.57165,-1.55691 c -0.27082,-0.4382 -1.15299,-0.54323 -1.96038,-0.23341 C 236.66059,346.96049 236,346.71583 236,346.10699 236,345.49814 236.64468,345 237.43261,345 c 0.78794,0 1.74117,-1.0125 2.11828,-2.25 1.51082,-4.95769 6.49787,-7.67127 7.81074,-4.25 0.31658,0.825 1.46317,1.5 2.54797,1.5 3.06637,0 3.49392,1.89608 0.66967,2.96986 -1.6977,0.64546 -2.34595,1.47458 -1.95318,2.49813 0.32334,0.8426 0.20224,1.57896 -0.2691,1.63635 -4.38566,0.53394 -8.52563,0.43181 -8.92864,-0.22027 z m -13.76168,-3.55074 C 224.39888,342.06554 225.00776,341 227,341 c 1.11111,0 2,0.66667 2,1.5 0,1.52241 -2.1154,2.05126 -3.33333,0.83333 z M 263,343 c 0,-0.55 0.45,-1 1,-1 0.55,0 1,0.45 1,1 0,0.55 -0.45,1 -1,1 -0.55,0 -1,-0.45 -1,-1 z m -27.48992,-4.01631 c 0.34546,-0.55897 1.04702,-0.75742 1.55902,-0.44098 1.38704,0.85723 1.12841,1.45729 -0.62812,1.45729 -0.85746,0 -1.27636,-0.45734 -0.9309,-1.01631 z m -7.32401,-2.05736 c -0.89601,-1.43473 -0.5773,-1.79808 2.03552,-2.32065 3.96646,-0.79329 4.14158,-0.53412 1.33078,1.96953 -2.13581,1.90241 -2.3815,1.92804 -3.3663,0.35112 z m -9.11218,-2.3373 c -0.80051,-0.96456 -0.83925,-1.61601 -0.12245,-2.05902 1.39636,-0.863 3.04856,0.23665 3.04856,2.02901 0,1.83608 -1.41516,1.85059 -2.92611,0.03 z m 22.55281,-1.11945 c -0.38341,-0.99915 0.2752,-1.92339 1.89724,-2.66244 3.24812,-1.47994 4.07507,-0.5296 1.82543,2.0978 -2.1355,2.49408 -2.9357,2.61545 -3.72267,0.56464 z M 218.66667,312.33333 C 217.68183,311.3485 217.85673,308 218.89301,308 c 0.89317,0 2.10699,2.35148 2.10699,4.08179 0,1.06943 -1.36797,1.21691 -2.33333,0.25154 z M 154.07895,188.41667 c 0.048,-1.16495 0.28494,-1.4019 0.60416,-0.60417 0.28887,0.72187 0.25335,1.58437 -0.0789,1.91667 -0.3323,0.33229 -0.56864,-0.25834 -0.52522,-1.3125 z M 267.93072,81.014336 c -1.8869,-1.61318 -4.14848,-2.951343 -5.02573,-2.973695 -1.75254,-0.04465 -4.25907,-2.57503 -5.20948,-5.259041 -0.33467,-0.94512 -2.20307,-2.384658 -4.152,-3.198973 C 251.59458,68.768311 250,67.707533 250,67.225341 c 0,-1.299108 4.04434,-4.761092 7.75,-6.634048 1.87707,-0.948732 3.25,-2.412604 3.25,-3.465283 0,-1.212192 1.40602,-2.374929 4.19805,-3.47167 4.17812,-1.641213 4.21123,-1.636412 6.97527,1.011713 1.54274,1.478034 2.69969,3.597639 2.60279,4.768458 -0.0959,1.159239 0.92378,3.593128 2.26605,5.408645 2.00937,2.717812 2.45338,4.523301 2.51348,10.220438 0.0577,5.474976 -0.25358,7.006241 -1.49132,7.335007 -6.03952,1.604199 -6.7519,1.506887 -10.1336,-1.384265 z"
         style="fill:#996e5b" />
      <path
         inkscape:connector-curvature="0"
         id="path83688"
         d="m 186.12025,626.92043 c -2.40886,-0.47324 -5.49806,-1.59318 -6.86488,-2.48876 -2.58114,-1.69123 -2.60266,-2.04741 -0.64555,-10.68167 l 0.62333,-2.75 -12.66203,0 c -12.1103,0 -12.76898,-0.10695 -15.11657,-2.45455 -2.96961,-2.9696 -3.06451,-4.92616 -0.48441,-9.98689 1.71338,-3.36068 1.89606,-5.18026 1.40167,-13.96144 -0.95367,-16.93907 -1.03007,-16.32476 2.45385,-19.73093 3.61822,-3.53748 4.06544,-7.0891 1.72717,-13.71646 -0.79595,-2.25594 -1.95169,-8.72502 -2.56833,-14.37572 -0.61664,-5.65071 -2.25981,-13.58646 -3.65148,-17.63501 -2.40018,-6.98241 -2.50846,-8.21679 -2.10521,-24 0.39476,-15.45078 0.61605,-17.05165 3.09866,-22.41751 3.1037,-6.70828 3.35217,-10.94469 0.95889,-16.34937 -1.41274,-3.19034 -1.70069,-6.86538 -1.63539,-20.87212 0.0682,-14.62613 0.38821,-17.97747 2.29183,-24 3.98452,-12.60597 4.11225,-15.91807 0.96298,-24.97067 -2.87129,-8.25354 -5.24585,-20.16845 -4.31848,-21.66897 0.2874,-0.46501 2.3908,0.10763 4.67424,1.27256 3.60454,1.8389 5.34358,2.0521 13.19558,1.61778 4.97413,-0.27514 10.16888,-0.96896 11.54388,-1.54183 1.375,-0.57287 4.56784,-1.5682 7.09521,-2.21185 4.67293,-1.19006 8.32417,-4.10162 16.62032,-13.25331 4.32683,-4.77305 5.45504,-8.691 3.8854,-13.49296 -0.61074,-1.8684 -1.06599,-2.07222 -2.68875,-1.20375 -1.07443,0.57502 -2.41393,0.76094 -2.97665,0.41315 -0.56273,-0.34778 -1.56593,-0.20858 -2.22933,0.30933 -2.0772,1.62163 -5.59086,2.07443 -6.60597,0.85129 -1.00267,-1.20815 -0.90346,-4.60964 0.23686,-8.12077 0.35725,-1.1 2.34006,-2.9 4.40623,-4 5.10074,-2.71556 5.80973,-7.3768 1.00668,-6.61842 -1.74389,0.27535 -0.61309,-4.10462 1.18083,-4.57374 2.37926,-0.62219 3.24477,-2.65893 2.26054,-5.31955 -0.68422,-1.84963 -0.89985,-1.74773 -2.64287,1.24889 -1.04383,1.79455 -2.21985,3.48782 -2.61338,3.76282 -1.73792,1.21446 -8.19484,13.51744 -9.58896,18.27074 -0.84354,2.87609 -2.36154,6.12926 -3.37332,7.22926 -1.01179,1.1 -2.29131,3.19241 -2.84338,4.6498 -0.85325,2.25245 -0.71328,2.72577 0.93339,3.15638 2.29454,0.60004 2.60992,2.69382 0.40577,2.69382 -0.84227,0 -1.79041,0.675 -2.10699,1.5 -0.31659,0.825 -1.21075,1.5 -1.98702,1.5 -0.77628,0 -3.67361,1.18286 -6.4385,2.62859 -4.46812,2.33631 -5.85193,2.57565 -12.44537,2.15251 -4.08005,-0.26184 -8.04909,-0.9996 -8.82008,-1.63946 -0.77099,-0.63987 -1.67605,-3.16435 -2.01126,-5.60996 -0.33521,-2.44561 -1.54318,-7.21824 -2.68439,-10.60585 -2.77783,-8.24587 -4.0086,-27.8521 -2.34939,-37.42583 1.30609,-7.53621 1.40907,-7.89039 4.99201,-17.17056 4.26966,-11.0588 3.20035,-19.46178 -6.15007,-48.32944 -2.93945,-9.075 -5.62011,-19.2 -5.95702,-22.5 -0.3369,-3.3 -0.85415,-7.6875 -1.14944,-9.75 -0.65744,-4.59198 0.47512,-4.75993 4.55896,-0.67609 3.12258,3.12257 6.57994,3.60714 6.57994,0.92222 0,-0.8481 1.24168,-1.69347 2.9175,-1.98631 C 151.17016,202.5288 153.40995,200 151.08333,200 150.4875,200 150,199.5178 150,198.92843 c 0,-0.58936 1.0125,-0.98955 2.25,-0.8893 4.08899,0.33122 4.75,-0.0152 4.75,-2.48944 0,-1.34767 0.74508,-2.86728 1.65574,-3.37691 1.50281,-0.84101 1.45033,-1.21508 -0.56809,-4.04969 C 156.67169,186.13456 155.00561,185 153.50146,185 c -1.67376,0 -2.4555,-0.6439 -2.68191,-2.20901 -0.1988,-1.37426 -1.23624,-2.42386 -2.74541,-2.77758 -3.66973,-0.86012 -3.67272,-2.90878 -0.006,-4.18697 l 3.24841,-1.1324 -5.22302,-2.64671 c -10.48347,-5.31237 -15.36011,-15.66915 -11.46652,-24.35202 1.03021,-2.2974 2.99811,-5.53268 4.37311,-7.1895 1.375,-1.65681 2.95,-3.73109 3.5,-4.60951 0.55,-0.87841 2.20305,-3.40092 3.67345,-5.60558 1.4704,-2.20465 3.19145,-5.98447 3.82455,-8.39959 1.37388,-5.24101 5.68613,-12.20438 7.03979,-11.36778 2.29893,1.42082 0.63977,-3.491 -2.9784,-8.8173 -6.1365,-9.033548 -8.34465,-25.339141 -4.45999,-32.933872 2.63433,-5.150263 11.00762,-15.256922 16.33696,-19.718899 12.69736,-10.630826 22.73586,-11.600929 41.56364,-4.016636 11.93541,4.807877 18.5,9.603439 18.5,13.51462 0,1.275196 0.4175,3.416643 0.92778,4.758772 0.72992,1.919839 1.46487,2.337562 3.44632,1.958784 1.58001,-0.302039 3.60782,0.294183 5.44162,1.59996 1.60769,1.144775 4.02269,2.499485 5.36667,3.010466 1.63987,0.623478 2.83402,2.232158 3.63061,4.890925 1.67795,5.60053 1.50234,7.201208 -1.28691,11.72983 -2.42494,3.937118 -3.25179,9.809653 -1.72053,12.219635 0.60211,0.947628 2.57088,0.848276 8.82762,-0.445479 7.20733,-1.490316 8.46282,-1.509216 11.95975,-0.180037 3.88875,1.478114 3.91019,1.516415 4.57194,8.169651 0.6692,6.72811 4.84568,17.73623 6.72912,17.73623 1.44454,0 7.05106,6.05529 8.33299,9 0.59858,1.375 1.15089,8.8 1.22736,16.5 0.0765,7.7 0.52851,16.0149 1.00454,18.47755 l 0.8655,4.47755 -8.0729,-7.28941 c -7.73695,-6.98607 -8.25347,-7.27505 -12.41219,-6.94435 -4.64059,0.36901 -3.71942,1.22727 2.41071,2.24606 2.0625,0.34277 3.75,1.16865 3.75,1.83527 0,0.66663 2.49056,4.06777 5.53457,7.55809 3.66986,4.20792 5.35063,6.92558 4.98862,8.06618 -0.30028,0.94608 0.15886,3.13299 1.02031,4.8598 3.02786,6.06948 -0.58375,8.8199 -16.83495,12.82065 -19.51066,4.80317 -20.14863,5.25693 -18.36292,13.06053 0.54486,2.38102 0.62838,4.6673 0.18561,5.08061 -0.44278,0.41331 -0.98467,0.25278 -1.20421,-0.35672 -2.79103,-7.74877 -10.02507,-3.14009 -10.96537,6.98585 -1.69308,18.23254 -1.66631,19.44082 0.51251,23.13365 1.16921,1.98165 2.12583,4.70229 2.12583,6.04585 0,1.7959 0.54281,2.44284 2.04966,2.44284 1.12731,0 3.32842,0.66127 4.89135,1.46949 2.68447,1.3882 2.8746,1.34671 3.43668,-0.75 0.32725,-1.22072 0.60115,-7.43725 0.60866,-13.8145 0.0122,-10.32683 0.23307,-11.79359 2.01978,-13.41054 1.10337,-0.99854 2.15943,-1.63078 2.3468,-1.40499 1.60499,1.93414 6.11196,11.80798 8.15199,17.85929 2.51156,7.45001 2.5832,10.27556 0.44503,17.55125 C 260.36698,264.88645 258,287.60568 258,297.41316 c 0,10.28688 -0.30069,10.77321 -5,8.08684 -1.375,-0.78602 -3.67949,-1.44508 -5.1211,-1.46456 -1.83402,-0.0248 -3.3193,-1.0544 -4.94623,-3.42875 -2.27,-3.31285 -4.93267,-3.83555 -4.93267,-0.96832 0,2.01059 -2.74071,2.82171 -4.5265,1.33964 -2.39002,-1.98355 -9.17078,-2.20928 -9.89219,-0.32932 -0.47973,1.25016 -0.90314,1.3291 -2.04516,0.38132 -0.79209,-0.65739 -2.3239,-0.91476 -3.40401,-0.57195 -1.0801,0.34281 -2.26544,0.13528 -2.63407,-0.46119 -1.06588,-1.72463 1.35785,-3.84731 3.69507,-3.23611 1.44708,0.37842 1.89262,0.18702 1.40421,-0.60324 C 220.20389,295.52089 218.59067,295 217.01241,295 c -1.57825,0 -3.52295,-0.6534 -4.32155,-1.452 -1.26933,-1.26933 -1.42433,-1.11207 -1.23211,1.25 0.12095,1.4861 0.57364,3.51112 1.006,4.50004 0.54427,1.24491 0.20916,2.24492 -1.08932,3.25067 -1.8239,1.41271 -1.81764,1.50183 0.22775,3.24336 2.87037,2.44396 4.61293,5.93229 3.99417,7.9957 -0.28324,0.94455 0.72827,3.50564 2.25605,5.71223 2.27111,3.28017 3.3883,4.02194 6.20805,4.1219 6.37286,0.22591 6.93855,0.37404 6.93855,1.81683 0,0.9516 -1.60826,1.6754 -4.75,2.13775 -2.6125,0.38447 -5.60707,1.29064 -6.65461,2.01372 -2.59618,1.79205 -5.59539,0.1 -5.59539,-3.15677 0,-2.91561 -2.3796,-4.19321 -4.51273,-2.42286 -2.3453,1.94642 -1.81473,4.86914 1.01273,5.57879 2.9343,0.73646 3.08749,1.26057 0.84722,2.89869 -1.9487,1.42493 -1.0042,3.51195 1.58935,3.51195 1.0002,0 2.37874,0.675 3.06343,1.5 1.05059,1.26588 0.85134,1.5 -1.27659,1.5 -1.9371,0 -3.01589,0.94855 -4.65476,4.0928 l -2.13329,4.09281 4.28232,-0.3277 c 3.24699,-0.24847 5.37028,0.31685 8.78232,2.33826 5.96394,3.53324 14.44999,6.80383 17.6536,6.80383 2.28973,0 2.51359,0.30898 1.99242,2.75 -0.32293,1.5125 -0.85025,14.225 -1.17183,28.25 -0.32158,14.025 -1.05601,28.425 -1.63207,32 -0.57605,3.575 -1.00605,12.8 -0.95556,20.5 0.0937,14.29374 -1.0202,20.52449 -6.52552,36.5 -3.32113,9.63738 -3.78476,15.56515 -1.95939,25.05222 2.50272,13.00755 3.65331,27.5258 4.28189,54.02911 0.53391,22.51193 0.46307,23.79882 -1.56214,28.37712 -1.16677,2.63768 -2.1214,5.41992 -2.1214,6.18275 0,1.8662 9.44377,10.79844 14.86172,14.05671 3.86694,2.32553 4.72575,2.49143 7.57099,1.46258 1.76511,-0.63827 4.55017,-1.16049 6.18902,-1.16049 2.54359,0 3.30165,0.66258 5.179,4.52675 2.97158,6.1164 2.7847,7.95001 -1.05073,10.30934 -4.50671,2.77227 -19.57756,6.89515 -29.72377,8.13142 -9.98659,1.21682 -39.62727,1.18642 -45.90598,-0.0471 z M 162.63837,346.5 c 0.85525,-2.22874 -0.39162,-4.77266 -1.88131,-3.83834 -0.69138,0.43363 -2.04456,0.65887 -3.00706,0.50052 -1.17766,-0.19374 -1.75,0.36401 -1.75,1.70541 0,1.81255 0.66973,2.19249 5.28138,2.99623 0.42977,0.0749 1.04041,-0.53882 1.35699,-1.36382 z m 8.53568,-4.28518 c 0.0957,-1.49315 0.23914,-4.06482 0.31869,-5.71482 0.0796,-1.65 0.46953,-3.97463 0.86663,-5.16584 0.41025,-1.23071 0.27014,-2.4451 -0.32452,-2.81262 -1.71592,-1.0605 -7.79116,1.6546 -9.07658,4.05643 -1.52093,2.84189 -0.40993,5.04176 1.67314,3.31297 1.13536,-0.94227 1.71758,-0.93927 2.66097,0.0137 0.94483,0.95443 0.8268,1.43477 -0.54238,2.20731 -1.96795,1.11039 -2.26705,4.05339 -0.70801,6.96648 1.45746,2.7233 4.89692,0.80412 5.13206,-2.86363 z M 155.73466,336.75 c 1.71984,-1.7875 3.4319,-4.4875 3.80457,-6 0.44154,-1.79199 1.33655,-2.75 2.56918,-2.75 1.47356,0 1.885,-0.71824 1.86175,-3.25 L 163.94032,321.5 160,326 c -2.16717,2.475 -3.95375,5.11024 -3.97016,5.85608 -0.0164,0.74584 -1.15484,2.241 -2.52984,3.32258 -2.37667,1.86949 -3.41515,4.82134 -1.69617,4.82134 0.44211,0 2.21098,-1.4625 3.93083,-3.25 z m 46.25881,-5.65617 c 2.19684,-1.73541 2.2894,-2.04805 0.77804,-2.62801 -2.37905,-0.91293 -7.44389,1.51972 -8.64287,4.15119 -0.54717,1.2009 -0.7429,2.4354 -0.43496,2.74334 0.6519,0.6519 4.72245,-1.44057 8.29979,-4.26652 z M 180.76208,329.75 c 0.55384,-0.6875 1.31969,-2.7125 1.7019,-4.5 0.57217,-2.67588 0.39123,-3.25 -1.02428,-3.25 -2.32406,0 -4.36915,2.89976 -4.4079,6.25 -0.0337,2.9164 1.94748,3.71307 3.73028,1.5 z M 166,320 c 0,-0.55 -0.19844,-1 -0.44098,-1 -0.24254,0 -0.7191,0.45 -1.05902,1 -0.33992,0.55 -0.14148,1 0.44098,1 C 165.52344,321 166,320.55 166,320 Z M 156,201.5 c 0,-0.825 -0.42344,-1.5 -0.94098,-1.5 -1.26098,0 -2.1641,1.56159 -1.36517,2.36052 C 154.82004,203.4867 156,203.04641 156,201.5 Z m 81.18605,-30.11745 c 3.95746,-2.49823 4.271,-2.54378 6.88442,-1 1.50596,0.8896 3.45618,1.61745 4.33382,1.61745 2.13447,0 2.03069,-2.56463 -0.16969,-4.1933 -0.97096,-0.71868 -2.3214,-2.56632 -3.00095,-4.10585 -0.97607,-2.21128 -1.58796,-2.60195 -2.9135,-1.86014 -1.24856,0.69873 -2.12133,0.39145 -3.41069,-1.20085 C 237.48233,158.87743 236.10285,158.5 231.08835,158.5 226.88434,158.5 225,158.11313 225,157.25 c 0,-0.6875 -0.85186,-1.25 -1.89301,-1.25 -1.04116,0 -2.15187,-0.67456 -2.46824,-1.49903 -0.5366,-1.39836 -8.2035,-5.37206 -13.44705,-6.96952 -3.0236,-0.92115 -2.58621,-4.53707 0.74922,-6.19381 2.24964,-1.11742 2.66038,-0.91401 5.24152,2.5958 2.2214,3.02064 3.68131,3.95198 7.05908,4.50329 4.09042,0.66764 4.40906,0.52662 8.07396,-3.57323 2.09851,-2.34756 4.06946,-5.53818 4.37988,-7.09028 0.31042,-1.5521 1.79652,-3.69934 3.30245,-4.77166 1.50593,-1.07232 3.31493,-3.34238 4.02001,-5.04458 1.14874,-2.7733 0.94352,-4.10096 -1.97482,-12.77595 -1.79123,-5.32457 -3.93809,-10.22043 -4.77081,-10.87969 -2.17113,-1.71889 -0.8286,-7.699603 2.89109,-12.879172 2.66884,-3.716296 2.92869,-4.706053 2.37532,-9.047475 -1.11945,-8.782493 -2.63721,-12.503876 -4.96403,-12.171255 -1.42585,0.203827 -2.17351,1.156483 -2.39099,3.046562 -0.36924,3.208977 -0.85541,3.356964 -3.41589,1.039763 -1.12161,-1.01504 -2.17319,-1.319909 -2.58697,-0.75 C 219.64315,81.166687 218,84.721452 218,89.07446 c 0,4.214677 -0.28733,4.801915 -2.8737,5.873226 -1.65969,0.687465 -4.36893,0.909821 -6.41306,0.526339 -1.94665,-0.365193 -4.48603,-0.363526 -5.64307,0.0037 C 200.69426,96.231812 197,102.75211 197,106.19144 c 0,1.54103 -2.46216,4.57118 -7.65915,9.42604 l -7.65915,7.15492 7.40915,4.77419 c 4.07503,2.6258 8.62843,5.60201 10.11866,6.6138 1.49023,1.01179 2.92343,1.83961 3.1849,1.83961 0.26146,0 1.72694,0.47584 3.25661,1.05742 3.96671,1.50814 1.32579,2.90775 -5.52346,2.92727 -4.65221,0.0133 -5.20619,0.21564 -4.13225,1.50966 1.01886,1.22765 0.81763,1.84637 -1.12755,3.46673 -1.30227,1.08481 -2.92744,1.98735 -3.61149,2.00565 -1.64018,0.0439 -7.66671,8.39646 -6.37004,8.82868 0.55159,0.18386 1.89826,-0.14489 2.99259,-0.73056 4.52489,-2.42164 5.36319,-0.61783 1.94428,4.18359 l -2.17691,3.05718 2.61568,-0.6565 c 2.36928,-0.59465 2.59788,-0.39925 2.4269,2.07428 -0.16413,2.37439 0.36877,2.9265 4.08329,4.23046 3.56164,1.25028 4.62136,1.28154 6.37247,0.18795 1.28073,-0.79983 4.29652,-1.18943 7.72794,-0.99836 3.09514,0.17235 6.19348,-0.0431 6.8852,-0.4788 0.73446,-0.46262 1.89459,-0.15524 2.78869,0.73885 1.01946,1.01946 2.51534,1.33416 4.47693,0.94184 2.19105,-0.43821 3.07798,-0.17358 3.46131,1.03274 0.28347,0.89206 0.72628,2.29692 0.98402,3.12192 0.68276,2.18547 3.02177,1.84679 7.71743,-1.11745 z m 16.85979,-9.2969 C 253.43192,160.93854 252.47446,160 251.91813,160 c -0.55632,0 -0.20299,1.08093 0.78519,2.40206 2.124,2.83967 2.92994,2.64972 1.34252,-0.31641 z M 250,348.44098 c 0,-0.85746 0.45734,-1.27636 1.01631,-0.9309 0.55897,0.34546 0.75742,1.04702 0.44098,1.55902 C 250.60006,350.45614 250,350.19751 250,348.44098 Z m -10.57165,-1.55691 c -0.27082,-0.4382 -1.15299,-0.54323 -1.96038,-0.23341 C 236.66059,346.96049 236,346.71583 236,346.10699 236,345.49814 236.64468,345 237.43261,345 c 0.78794,0 1.74117,-1.0125 2.11828,-2.25 1.51082,-4.95769 6.49787,-7.67127 7.81074,-4.25 0.31658,0.825 1.46317,1.5 2.54797,1.5 3.06637,0 3.49392,1.89608 0.66967,2.96986 -1.6977,0.64546 -2.34595,1.47458 -1.95318,2.49813 0.32334,0.8426 0.20224,1.57896 -0.2691,1.63635 -4.38566,0.53394 -8.52563,0.43181 -8.92864,-0.22027 z m -13.76168,-3.55074 C 224.39888,342.06554 225.00776,341 227,341 c 1.11111,0 2,0.66667 2,1.5 0,1.52241 -2.1154,2.05126 -3.33333,0.83333 z M 263,343 c 0,-0.55 0.45,-1 1,-1 0.55,0 1,0.45 1,1 0,0.55 -0.45,1 -1,1 -0.55,0 -1,-0.45 -1,-1 z m -27.48992,-4.01631 c 0.34546,-0.55897 1.04702,-0.75742 1.55902,-0.44098 1.38704,0.85723 1.12841,1.45729 -0.62812,1.45729 -0.85746,0 -1.27636,-0.45734 -0.9309,-1.01631 z m -7.32401,-2.05736 c -0.89601,-1.43473 -0.5773,-1.79808 2.03552,-2.32065 3.96646,-0.79329 4.14158,-0.53412 1.33078,1.96953 -2.13581,1.90241 -2.3815,1.92804 -3.3663,0.35112 z m -9.11218,-2.3373 c -0.80051,-0.96456 -0.83925,-1.61601 -0.12245,-2.05902 1.39636,-0.863 3.04856,0.23665 3.04856,2.02901 0,1.83608 -1.41516,1.85059 -2.92611,0.03 z m 22.55281,-1.11945 c -0.38341,-0.99915 0.2752,-1.92339 1.89724,-2.66244 3.24812,-1.47994 4.07507,-0.5296 1.82543,2.0978 -2.1355,2.49408 -2.9357,2.61545 -3.72267,0.56464 z M 218.66667,312.33333 C 217.68183,311.3485 217.85673,308 218.89301,308 c 0.89317,0 2.10699,2.35148 2.10699,4.08179 0,1.06943 -1.36797,1.21691 -2.33333,0.25154 z M 154.07895,188.41667 c 0.048,-1.16495 0.28494,-1.4019 0.60416,-0.60417 0.28887,0.72187 0.25335,1.58437 -0.0789,1.91667 -0.3323,0.33229 -0.56864,-0.25834 -0.52522,-1.3125 z M 268.23422,79.970687 C 266.43805,78.336809 264.12,77 263.083,77 c -1.09636,0 -2.7535,-1.47124 -3.95957,-3.515378 -1.14077,-1.933458 -3.16651,-3.930701 -4.50164,-4.438317 -5.07935,-1.931165 -4.21325,-4.683595 2.56131,-8.139717 2.32035,-1.183754 3.8169,-2.663961 3.8169,-3.775222 0,-1.218482 1.39975,-2.377824 4.19805,-3.477026 4.17812,-1.641213 4.21123,-1.636412 6.97527,1.011713 1.57253,1.506578 2.70012,3.592446 2.59947,4.808612 -0.0978,1.181323 0.92585,3.695291 2.27472,5.586597 1.98132,2.778091 2.46146,4.687512 2.49919,9.938738 0.0257,3.575 -0.42432,6.830609 -1,7.234687 -2.38941,1.677145 -7.12206,0.638139 -10.31248,-2.264 z"
         style="fill:#59738a" />
      <path
         inkscape:connector-curvature="0"
         id="path83686"
         d="m 200.5,626.93147 c -21.48879,-0.71865 -25.22246,-2.27085 -22.52547,-9.36449 2.41444,-6.35046 2.10487,-6.56131 -9.72453,-6.62342 -5.9125,-0.0311 -12.325,-0.59355 -14.25,-1.25 -2.95135,-1.00646 -3.55051,-1.72158 -3.82219,-4.562 -0.1817,-1.89956 0.60847,-5.53182 1.81199,-8.32949 1.29499,-3.01029 1.91603,-6.01114 1.57939,-7.63156 -0.30514,-1.46878 -0.79616,-6.64616 -1.09115,-11.50529 -0.53045,-8.73774 -0.50307,-8.87269 2.49281,-12.2848 3.25153,-3.70329 3.98838,-8.72726 2.03394,-13.86781 -0.54736,-1.43967 -1.44146,-6.30647 -1.98689,-10.8151 -1.43079,-11.82711 -1.97345,-14.55686 -4.10763,-20.66285 C 149.3158,515.47283 149,511.72599 149,497.3701 c 0,-16.88273 0.058,-17.35114 3.15258,-25.45498 l 3.15257,-8.25576 -1.74597,-4.57968 c -2.26527,-5.94178 -3.22579,-27.58855 -1.72039,-38.7715 0.60652,-4.50551 2.01591,-10.78991 3.13198,-13.96535 2.64155,-7.51567 2.55919,-10.69674 -0.48643,-18.7882 -2.41195,-6.40796 -5.25142,-21.12088 -4.26628,-22.10602 0.26008,-0.26008 2.65831,0.49386 5.32941,1.67541 4.50335,1.99205 5.47821,2.06803 13.40454,1.04476 4.70139,-0.60694 11.62893,-2.0525 15.39451,-3.21236 6.00274,-1.84893 7.71783,-2.98533 13.91637,-9.22088 6.70099,-6.74099 7.37602,-7.15393 12.93797,-7.91458 5.26426,-0.71993 6.26366,-0.55281 9.71198,1.62402 5.14027,3.24491 10.72478,5.54943 15.58716,6.43225 3.23878,0.58803 3.93294,1.097 3.64763,2.6745 -0.1938,1.07155 -0.72943,14.09827 -1.19027,28.94827 -0.46085,14.85 -1.31441,31.95 -1.8968,38 -0.58239,6.05 -1.05926,15.55592 -1.05972,21.12427 -5.5e-4,6.64481 -0.53792,11.62811 -1.56361,14.5 -0.85952,2.40665 -2.02548,6.83645 -2.59103,9.84401 -0.56554,3.00755 -1.8873,7.15212 -2.93723,9.21016 -2.32813,4.56351 -2.48877,12.52835 -0.4502,22.32156 2.16401,10.39585 3.48419,30.20919 3.69801,55.5 0.16161,19.11622 -0.0615,23.08233 -1.48328,26.37212 -0.92043,2.12967 -1.67325,4.60467 -1.67294,5.5 6.2e-4,1.82921 10.93233,11.97571 16.33997,15.16629 3.29281,1.94281 3.72805,1.97749 6.54379,0.52141 3.63526,-1.87986 7.52977,-2.01693 8.80334,-0.30982 0.51291,0.6875 1.76182,3.16353 2.77536,5.5023 1.79846,4.14997 1.79701,4.30312 -0.0601,6.36476 -2.19838,2.44048 -4.42735,3.41451 -13.40291,5.85688 -15.45466,4.20542 -23.30949,4.83342 -49.5,3.95753 z M 176,351 c 0,-0.55 0.70156,-1 1.55902,-1 0.85746,0 1.2809,0.45 0.94098,1 -0.33992,0.55 -1.04148,1 -1.55902,1 C 176.42344,352 176,351.55 176,351 Z m 31.69425,-12.06117 c -0.61935,-2.36843 1.81722,-3.82736 3.53059,-2.11399 0.7872,0.7872 0.73446,1.51928 -0.18967,2.63278 -1.73362,2.08889 -2.69816,1.93911 -3.34092,-0.51879 z m -54.95217,-18.02336 c -0.96686,-0.56304 -2.20753,-0.74584 -2.75706,-0.40621 -1.74672,1.07953 -2.29287,-2.51161 -0.65689,-4.31934 1.07158,-1.18408 1.27386,-2.20499 0.63659,-3.21276 -1.66272,-2.62939 -1.02982,-4.90405 2.14784,-7.71945 3.70808,-3.28534 9.31522,-11.16326 8.51504,-11.96344 -0.31085,-0.31085 -1.68839,0.17077 -3.06121,1.07027 -2.93113,1.92055 -7.66138,2.14047 -9.36639,0.43546 -1.73588,-1.73588 -1.47975,-5.67379 0.8,-12.3 2.38065,-6.91947 2.55395,-13.67847 0.5,-19.5 -2.08202,-5.90108 -1.99403,-11 0.18984,-11 1.2658,0 0.8894,-0.78258 -1.5,-3.11866 -4.45223,-4.35288 -4.24905,-6.43884 0.36217,-3.71815 3.3303,1.96492 3.75162,1.998 6.75,0.53001 1.75889,-0.86115 4.09799,-1.85304 5.19799,-2.20421 1.7737,-0.56624 1.64052,-0.79081 -1.17703,-1.98478 -2.48701,-1.0539 -3.05895,-1.79782 -2.63337,-3.42525 0.33446,-1.27896 1.3646,-2.08421 2.67703,-2.09261 C 164.22015,235.95528 166,234.85438 166,231.88337 166,230.29752 166.45,229 167,229 c 2.15633,0 0.93394,-4.07462 -1.5,-5 -3.54139,-1.34643 -3.13382,-2.27312 1.99053,-4.52588 4.43459,-1.94953 5.34958,-3.59783 3.56393,-6.42024 -0.56272,-0.88945 -0.53012,-2.16511 0.0847,-3.31392 0.6947,-1.29805 0.64026,-2.30081 -0.17847,-3.28731 -1.18337,-1.42588 -0.97645,-1.56643 5.85268,-3.97526 C 179.02606,201.69692 177.05858,200 173.94098,200 171.23724,200 171,199.71291 171,196.44098 c 0,-2.11803 0.40488,-3.30878 1,-2.94098 0.55,0.33992 1,1.46492 1,2.5 0,2.64039 1.90757,3.521 3.71403,1.71455 1.3628,-1.36281 1.31419,-1.92464 -0.46443,-5.36833 -5.27333,-10.20994 -5.426,-11.81836 -0.83636,-8.81111 2.11098,1.38317 2.58676,1.43302 2.58676,0.27103 0,-3.7679 -4.53388,-6.07404 -20.11444,-10.23111 -12.24745,-3.26775 -21.79405,-10.13727 -20.36129,-14.65151 0.37926,-1.19492 -0.098,-1.97084 -1.48248,-2.41026 C 134.5408,156.03687 134,155.00902 134,152.63261 134,149.0178 135.50459,147 138.2,147 c 2.03442,0 2.44641,-1.61786 0.57116,-2.24295 -0.87606,-0.29202 -0.66075,-1.21997 0.75,-3.23236 8.2822,-11.81432 9.31121,-13.65711 10.57651,-18.94076 1.66291,-6.94393 4.83845,-11.7152 7.2885,-10.95102 1.641,0.51183 1.79396,0.22093 1.1768,-2.23804 -0.39015,-1.5545 -2.32012,-5.02064 -4.28882,-7.70254 -4.10713,-5.595035 -6.23556,-13.238248 -6.25853,-22.474449 -0.0198,-7.977444 1.65332,-11.909753 8.56063,-20.119462 10.55291,-12.542697 19.59856,-18.249964 29.98316,-18.917583 6.58234,-0.423174 10.18966,0.543404 24.42401,6.544392 10.68081,4.502865 15.01074,8.311151 15.03189,13.220939 0.0199,4.624708 1.21228,6.433763 3.71661,5.638917 3.30532,-1.049068 13.53796,4.93338 14.942,8.735748 1.80955,4.900532 1.53392,7.825086 -1.14783,12.179168 -2.43201,3.948589 -3.25085,9.810667 -1.70941,12.237618 0.62059,0.977115 2.24865,0.933721 7.73468,-0.206162 11.07787,-2.301745 18.16989,0.112317 17.03279,5.797814 -0.34338,1.71689 0.2486,5.75132 1.42207,9.69161 1.75615,5.89684 2.69551,7.33568 7.42959,11.38013 3.14482,2.6867 5.85826,5.98736 6.46526,7.8644 0.58149,1.79815 0.88286,8.34159 0.67862,14.73459 -0.27563,8.62796 0.028,12.6806 1.21584,16.22729 0.87077,2.60001 1.25519,5.05532 0.85426,5.45625 -0.40093,0.40093 -2.39865,-1.07294 -4.43937,-3.27526 -2.04073,-2.20232 -5.38359,-5.26261 -7.42857,-6.80064 -3.41079,-2.56527 -4.19611,-2.74147 -9.5,-2.1316 -12.39076,1.42476 -31.87868,-0.0817 -39.65386,-3.0653 -2.20516,-0.8462 -2.10819,-4.39558 0.12201,-4.46597 1.90252,-0.0601 9.25,-9.49859 9.25,-11.88251 0,-0.80688 1.32264,-2.83847 2.9392,-4.51465 6.01268,-6.23446 6.15844,-7.35649 2.37484,-18.28171 -1.86015,-5.37125 -4.0962,-10.3053 -4.96899,-10.96456 -2.25248,-1.70142 -0.95682,-7.622503 2.81823,-12.879172 2.66884,-3.716296 2.92869,-4.706053 2.37532,-9.047475 -1.11945,-8.782493 -2.63721,-12.503876 -4.96403,-12.171255 -1.42585,0.203827 -2.17351,1.156483 -2.39099,3.046562 -0.36924,3.208977 -0.85541,3.356964 -3.41589,1.039763 -1.12161,-1.01504 -2.17319,-1.319909 -2.58697,-0.75 C 219.66069,81.142522 218,84.72618 218,89.035266 c 0,4.047012 -0.33879,4.798066 -2.63658,5.84501 -1.58534,0.722329 -4.33074,0.947252 -6.88563,0.564123 -2.35545,-0.353221 -5.11143,-0.175652 -6.18415,0.398448 -1.9547,1.046127 -4.67047,6.422323 -5.71834,11.320143 -0.34192,1.59818 -3.1516,4.92975 -7.02673,8.33192 -5.27274,4.62921 -6.87662,5.53575 -8.74494,4.94276 -2.0626,-0.65464 -2.14942,-0.55924 -0.88144,0.96857 0.77357,0.9321 4.82004,3.8878 8.99215,6.56822 15.23825,9.78996 16.38093,11.559 6.83566,10.58257 -4.71313,-0.48213 -5.81968,-0.3711 -4.5,0.45151 1.73874,1.08382 2.43481,3.9181 1,4.0718 -5.37612,0.57589 -11.25,0.41696 -11.25,-0.30439 0,-0.50328 -1.0125,-0.77125 -2.25,-0.5955 -3.0409,0.43188 -2.78968,2.03394 0.57157,3.64494 2.06223,0.98841 2.61003,1.81475 2.1545,3.25 -0.36747,1.1578 -0.14035,1.92461 0.57004,1.92461 0.78845,0 0.98189,1.08005 0.58207,3.25 -1.49524,8.11511 -1.58992,9.95297 -0.60734,11.78894 0.57724,1.07858 1.90337,1.96106 2.94696,1.96106 1.04358,0 2.149,0.7875 2.45647,1.75 0.78551,2.45892 7.43837,7.551 8.88019,6.79687 0.65755,-0.34392 2.32054,-1.27603 3.69554,-2.07135 3.06649,-1.7737 7.68784,-1.912 8.24295,-0.24668 0.30088,0.90265 1.10997,0.76994 3.04815,-0.5 3.39977,-2.22762 3.98625,-2.17806 3.2089,0.27116 -0.45409,1.43072 -0.1797,2 0.964,2 2.39161,0 3.00956,2.81924 1.08425,4.94668 -1.59592,1.76348 -1.58844,1.90414 0.12872,2.42244 2.73172,0.82452 11.47706,-2.53104 16.06337,-6.16347 4.27238,-3.38378 5.73978,-3.85586 6.77565,-2.17978 0.34871,0.56423 -0.78859,1.5218 -2.52734,2.12793 -2.63142,0.91732 -2.93735,1.32389 -1.82501,2.4254 1.49261,1.47807 8.775,2.19479 10.63301,1.04648 0.65991,-0.40785 2.20076,-0.0405 3.4241,0.81639 2.37032,1.66023 8.77925,2.15267 8.77925,0.67456 0,-0.48585 -0.9,-1.11872 -2,-1.40638 -2.48694,-0.65035 -2.71307,-3.9242 -0.25,-3.61942 0.9625,0.1191 2.50234,-0.11227 3.42186,-0.51415 0.91952,-0.40188 2.60702,-0.2302 3.75,0.3815 1.14298,0.6117 2.07814,0.84741 2.07814,0.52379 0,-0.32362 -2.06408,-3.75038 -4.58685,-7.61501 -2.52276,-3.86463 -4.35667,-7.25677 -4.07536,-7.53809 0.90289,-0.90288 4.66671,0.76066 6.78592,2.99925 2.90695,3.07072 8.07248,13.54542 7.29789,14.79874 -0.35603,0.57606 -1.48872,0.82734 -2.51711,0.55841 -3.08876,-0.80772 -0.507,2.82252 3.05729,4.2989 1.67102,0.69216 3.03822,1.62355 3.03822,2.06976 0,0.44621 0.9,1.09694 2,1.44607 1.1,0.34913 2,1.03862 2,1.5322 0,1.60195 -4.11502,3.16569 -17.36981,6.60067 -11.71256,3.03531 -14.56618,4.3195 -14.61488,6.57699 -0.008,0.39042 -1.86407,1.26376 -4.12366,1.94075 -2.5341,0.75923 -4.50382,2.09885 -5.14041,3.49601 -0.56763,1.24582 -2.89392,3.14031 -5.16954,4.20997 -6.32125,2.97134 -7.86306,7.65653 -8.01439,24.35376 -0.057,6.284 -0.52542,10.14776 -1.32766,10.95 C 221.55784,248.84216 221,250.57 221,252 c 0,1.43 -0.37226,3.0275 -0.82724,3.55 -0.45498,0.5225 -2.11714,5.45 -3.69369,10.95 -3.09257,10.78882 -6.47349,18.12887 -8.19224,17.78553 -1.05584,-0.21091 -1.74314,1.26569 -4.28893,9.21447 -0.7046,2.2 -2.56737,5.88108 -4.1395,8.18018 -1.57212,2.29909 -2.8584,4.55713 -2.8584,5.01786 0,0.46073 -1.15931,2.54377 -2.57625,4.62899 -2.1295,3.13384 -2.83086,3.57999 -4.04446,2.57279 -0.98425,-0.81686 -1.26255,-2.15484 -0.84429,-4.05916 0.68408,-3.1146 0.31222,-3.36445 -2.6488,-1.77976 -1.22431,0.65524 -1.77894,1.70679 -1.45045,2.75 0.61325,1.94755 -4.27502,5.70902 -9.28742,7.14656 -2.89726,0.83092 -4.37796,-0.0795 -2.25911,-1.38899 0.48907,-0.30227 1.19609,-1.77222 1.57114,-3.26657 0.37506,-1.49434 2.22491,-4.42489 4.11078,-6.51233 1.88587,-2.08743 3.42886,-4.43871 3.42886,-5.22506 0,-0.78636 0.90928,-1.71833 2.02062,-2.07105 2.00391,-0.63602 7.60671,-10.19946 6.57806,-11.22812 -0.75845,-0.75844 -5.41757,3.73538 -7.09593,6.84417 C 182.56855,298.6922 170.99264,311 169.5572,311 c -0.64068,0 -2.69142,1.575 -4.5572,3.5 -1.86578,1.925 -3.98346,3.5 -4.70595,3.5 -0.7225,0 -2.08423,0.9 -3.02608,2 -1.95054,2.27807 -2.12533,2.31342 -4.52589,0.91547 z m 40.47459,-21.0988 c -1.52752,-1.52752 -2.65464,-0.40039 -1.80743,1.80742 0.50024,1.30358 0.93392,1.43275 1.82354,0.54313 0.88963,-0.88963 0.88579,-1.44865 -0.0161,-2.35055 z m 6.26991,-7.43879 c 0.83238,-1.99217 1.45214,-4.80467 1.37724,-6.25 L 200.72764,283.5 200.28469,286 c -0.24362,1.375 -1.53234,3.53071 -2.86382,4.79047 -2.71475,2.56851 -3.18839,5.20953 -0.93429,5.20953 0.81762,0 2.16762,-1.62996 3,-3.62212 z M 196,281.88197 c 0,-0.55 -0.45,-0.72189 -1,-0.38197 -0.55,0.33992 -1,1.06803 -1,1.61803 0,0.55 0.45,0.72189 1,0.38197 0.55,-0.33992 1,-1.06803 1,-1.61803 z m -5,-1.94099 C 191,279.42344 190.55,279 190,279 c -0.55,0 -1,0.70156 -1,1.55902 0,0.85746 0.45,1.2809 1,0.94098 0.55,-0.33992 1,-1.04148 1,-1.55902 z m 6.80687,-2.46744 c -0.30789,-0.30789 -0.86705,0.24711 -1.24258,1.23333 -0.54268,1.4252 -0.42782,1.54006 0.5598,0.5598 0.68342,-0.67834 0.99067,-1.48524 0.68278,-1.79313 z M 158,278 c -1.95653,-1.26441 -4,-1.26441 -4,0 0,0.55 1.2375,0.99311 2.75,0.98469 2.14294,-0.0119 2.41887,-0.22931 1.25,-0.98469 z m 44.57831,-11.75502 c -0.60218,-0.60218 -2.61859,4.30015 -2.49674,6.07012 0.0449,0.65169 0.74252,-0.32995 1.55034,-2.18143 0.80782,-1.85148 1.2337,-3.60139 0.9464,-3.88869 z m -19.64546,0.3265 c 3.4487,-3.67097 2.10128,-5.31252 -1.7208,-2.09645 -1.76663,1.48652 -3.21205,3.11276 -3.21205,3.61386 0,1.72384 2.65516,0.90707 4.93285,-1.51741 z M 179.375,214.20225 c 0.88064,-1.4249 -1.12888,-3.51067 -2.77408,-2.87935 -2.2596,0.86709 -1.99973,3.6771 0.34006,3.6771 1.06754,0 2.16285,-0.35899 2.43402,-0.79775 z M 177.5,208 c 0.33992,-0.55 -0.33508,-1 -1.5,-1 -1.16492,0 -1.83992,0.45 -1.5,1 0.33992,0.55 1.01492,1 1.5,1 0.48508,0 1.16008,-0.45 1.5,-1 z M 144,154.88197 c 0,-0.55 -0.45,-0.72189 -1,-0.38197 -0.55,0.33992 -1,1.06803 -1,1.61803 0,0.55 0.45,0.72189 1,0.38197 0.55,-0.33992 1,-1.06803 1,-1.61803 z m 27,-3.15464 c 0,-0.7606 -6.57285,0.007 -8.25,0.96303 -2.27266,1.29595 -0.15212,1.8043 3.75,0.89897 2.475,-0.57423 4.5,-1.41213 4.5,-1.862 z M 156,146.5 c 0,-0.825 -0.64844,-1.5 -1.44098,-1.5 -1.67065,0 -2.79841,1.42728 -1.86517,2.36052 C 153.88901,148.55568 156,148.00623 156,146.5 Z m 121.96404,-3.25 c -0.0515,-2.50578 -4.47971,-7.5859 -6.09871,-6.99654 -0.75093,0.27336 -2.59814,-0.65153 -4.1049,-2.05532 -1.50676,-1.40378 -3.08024,-2.21167 -3.49661,-1.79529 -0.41637,0.41637 1.04143,2.27491 3.23957,4.13009 2.19813,1.85518 5.12161,4.50575 6.49661,5.89015 2.96491,2.98518 4.01288,3.20379 3.96404,0.82691 z M 162,143 c 0,-0.55 -0.675,-1 -1.5,-1 -0.825,0 -1.5,0.45 -1.5,1 0,0.55 0.675,1 1.5,1 0.825,0 1.5,-0.45 1.5,-1 z m 25.78186,-3.82694 c 0.30736,-0.93523 -0.38509,-1.23043 -2.34576,-1 -1.53002,0.17982 -2.97811,0.92406 -3.21796,1.65388 -0.30736,0.93523 0.38509,1.23043 2.34576,1 1.53002,-0.17982 2.97811,-0.92406 3.21796,-1.65388 z M 207,313.41667 c 0,-1.76593 2.15276,-1.45839 2.77083,0.39583 0.21771,0.65312 -0.31666,1.1875 -1.1875,1.1875 C 207.7125,315 207,314.2875 207,313.41667 Z m 25,-35.47569 c 0,-0.58246 0.45,-0.7809 1,-0.44098 0.55,0.33992 1,0.81648 1,1.05902 0,0.24254 -0.45,0.44098 -1,0.44098 -0.55,0 -1,-0.47656 -1,-1.05902 z m 24.64239,-2.02836 c 0.62832,-0.77694 1.38402,-2.31262 1.67934,-3.41262 0.33735,-1.25654 0.47028,-0.91348 0.35761,0.92288 -0.0986,1.60759 -0.85434,3.14327 -1.67934,3.41262 -1.17889,0.3849 -1.25544,0.18734 -0.35761,-0.92288 z M 253,265 c 0,-1.61798 0.66667,-2 3.49021,-2 3.39437,0 3.44319,0.0549 1.77776,2 -0.94185,1.1 -2.51244,2 -3.49021,2 C 253.66667,267 253,266.24999 253,265 Z m 0.19874,-11.78259 c 0.43296,-4.24458 0.56326,-8.70412 0.28956,-9.91011 -0.48487,-2.13644 1.24381,-7.33307 2.42222,-7.2815 0.76815,0.0336 3.69188,6.68846 4.50984,10.2651 0.39347,1.72045 1.07045,2.5238 1.76506,2.09451 0.79401,-0.49073 0.93302,0.27241 0.47068,2.5841 -0.36086,1.80427 -0.6561,4.13538 -0.6561,5.18024 0,1.84929 -1.77386,2.89968 -7.04422,4.17123 l -2.54423,0.61383 0.78719,-7.7174 z M 154.66667,223.33333 C 154.3,222.96667 154,222.20167 154,221.63333 c 0,-0.6266 0.46577,-0.56756 1.18333,0.15 0.65084,0.65084 0.95084,1.41584 0.66667,1.7 -0.28417,0.28417 -0.81667,0.21667 -1.18333,-0.15 z m 122.04796,-40.47418 c -3.72112,-2.77543 -6.55328,-8.56766 -6.42374,-13.13761 0.058,-2.04685 0.37498,-3.72154 0.70435,-3.72154 0.32938,0 2.36162,1.80523 4.51611,4.01162 2.71705,2.78252 3.98076,5.00381 4.12458,7.25 0.11404,1.78111 0.52009,4.25088 0.90234,5.48838 0.85785,2.77723 -0.20574,2.80759 -3.82364,0.10915 z m -23.99417,-13.19094 c -1.11427,-2.83307 -0.93262,-4.28037 0.37332,-2.97443 0.60158,0.60158 0.92578,1.92908 0.72046,2.95 -0.36008,1.79033 -0.3989,1.79119 -1.09378,0.0244 z M 267,163.5 c -2.36992,-1.35477 -2.3885,-1.43097 -0.35699,-1.46456 1.17866,-0.0195 2.40203,0.63956 2.71862,1.46456 0.68719,1.7908 0.77105,1.7908 -2.36163,0 z m -81.36163,-5 c 0.31659,-0.825 1.25756,-1.5 2.09106,-1.5 1.23369,0 1.284,0.27889 0.27057,1.5 -0.68469,0.825 -1.62567,1.5 -2.09106,1.5 -0.46539,0 -0.58715,-0.675 -0.27057,-1.5 z M 212,148.31584 c -4.96488,-2.15762 -6.36683,-4.57736 -3.32772,-5.74358 1.1124,-0.42687 2.87008,0.50114 5.25,2.77185 1.96774,1.87746 4.25272,3.65756 5.07772,3.95578 0.86092,0.3112 0.43486,0.5411 -1,0.53959 -1.375,-0.001 -4.075,-0.68709 -6,-1.52364 z M 268.23422,79.970687 C 266.43805,78.336809 264.12,77 263.083,77 c -1.09636,0 -2.7535,-1.47124 -3.95957,-3.515378 -1.14077,-1.933458 -3.21022,-3.94732 -4.59878,-4.475249 -3.91796,-1.489606 -3.24735,-4.600029 1.51564,-7.029929 2.22216,-1.133662 4.44003,-3.112585 4.9286,-4.397606 0.49778,-1.309271 2.30415,-2.829972 4.10893,-3.45912 4.38645,-1.529128 5.69497,-1.410131 3.36331,0.305862 -1.92092,1.413708 -1.92093,1.436401 -10e-4,2.17991 1.17487,0.455 2.08777,0.308121 2.31461,-0.372403 0.67262,-2.017868 3.24536,-0.08546 3.24536,2.437624 0,1.352853 1.09645,3.897257 2.43656,5.65423 1.93288,2.534128 2.51447,4.676882 2.81342,10.365438 0.3449,6.562775 0.20187,7.217941 -1.68656,7.725126 -3.95485,1.062177 -6.08496,0.503272 -9.3292,-2.447818 z"
         style="fill:#4d5e6f" />
      <path
         inkscape:connector-curvature="0"
         id="path83684"
         d="m 184.68913,625.63417 c -6.83242,-1.92566 -7.32002,-2.64785 -5.79779,-8.58726 0.70065,-2.73379 0.98517,-5.43771 0.63227,-6.00872 C 179.13574,610.41062 173.96142,610 166.44098,610 155.33333,610 153.78565,609.78565 152,608 c -2.47826,-2.47826 -2.48407,-4.33684 -0.0304,-9.74219 1.55427,-3.42403 1.85404,-5.93126 1.55434,-13 -0.20422,-4.8168 -0.6851,-10.21137 -1.06864,-11.98795 -0.5885,-2.72605 -0.21251,-3.78232 2.40925,-6.76834 4.14563,-4.7216 4.74811,-7.71673 2.7972,-13.90572 -0.89149,-2.82814 -2.12067,-9.85665 -2.73151,-15.61893 -0.61084,-5.76228 -2.23248,-13.7692 -3.60364,-17.79317 -2.34723,-6.88846 -2.47041,-8.29191 -2.10653,-24 0.36138,-15.59995 0.56166,-17.05907 3.08322,-22.46221 3.12207,-6.68991 3.37957,-10.92425 0.99423,-16.34937 -1.37543,-3.12822 -1.70565,-7.04206 -1.71888,-20.37212 -0.0149,-15.01255 0.22034,-17.26626 2.60938,-25 3.59558,-11.63948 3.97386,-15.92261 1.82934,-20.71256 C 153.17632,383.94184 149.20316,366 150.63896,366 c 0.40128,0 2.55917,0.86868 4.79532,1.9304 3.53125,1.67663 5.12066,1.81998 12.09064,1.09048 4.41371,-0.46196 11.61371,-1.86628 16,-3.12073 7.39125,-2.11383 8.47453,-2.78424 14.79756,-9.15771 6.29735,-6.3476 7.26272,-6.94781 12.54207,-7.79803 5.51326,-0.88788 6.00665,-0.77653 13.67752,3.08699 4.37686,2.20446 9.68137,4.28748 11.7878,4.62893 3.29921,0.53481 3.74885,0.9131 3.24516,2.73025 -0.32159,1.16018 -0.83927,13.80942 -1.1504,28.10942 -0.31112,14.3 -1.00009,28.23494 -1.53104,30.96653 -0.53094,2.7316 -0.95865,12.06845 -0.95045,20.74856 0.0135,14.30537 -0.21704,16.42504 -2.46412,22.65445 -1.36346,3.77984 -2.47902,8.17465 -2.47902,9.76625 0,1.59161 -0.96181,4.68716 -2.13736,6.87902 -2.73654,5.10239 -3.01024,16.53104 -0.68218,28.48519 2.51075,12.89225 3.83702,31.35611 3.82783,53.28984 -0.007,17.80659 -0.20872,20.18271 -2.00829,23.71016 -1.1,2.15618 -2,4.62328 -2,5.48244 0,1.70307 8.47029,10.27913 15.76722,15.96412 4.77444,3.71973 6.93067,3.89695 10.40031,0.8548 2.97592,-2.60925 5.81343,-1.20971 8.04741,3.9692 1.93428,4.48414 1.95664,4.88236 0.37249,6.63284 -2.08072,2.29916 -7.5241,4.39699 -18.58743,7.16344 -7.09544,1.77426 -12.30057,2.19139 -31.5,2.52435 -17.34204,0.30076 -24.18346,0.0653 -27.81087,-0.95702 z M 225,607.53138 c 0,-0.89459 -0.58629,-1.24363 -1.5,-0.89301 -0.825,0.31659 -1.5,0.97746 -1.5,1.46862 0,0.49115 0.675,0.89301 1.5,0.89301 0.825,0 1.5,-0.66088 1.5,-1.46862 z M 182.12756,416.25 c 1.24387,-1.58606 1.2085,-1.62143 -0.37756,-0.37756 -0.9625,0.75485 -1.75,1.54235 -1.75,1.75 0,0.82304 0.82119,0.29331 2.12756,-1.37244 z M 156.55311,288.4407 c -2.3679,-3.61386 -1.62845,-5.5427 2.69866,-7.03947 2.06348,-0.71377 6.00098,-2.42747 8.75,-3.80823 C 170.7508,276.21224 173,275.55772 173,276.1385 173,277.32559 160.07314,291 158.95095,291 c -0.39651,0 -1.47554,-1.15168 -2.39784,-2.5593 z m 3.53477,-13.38639 c -0.93845,-0.57999 -0.078,-1.64459 3.05267,-3.77709 C 167.56023,268.26674 174,266.29775 174,267.95691 c 0,2.4473 -11.7429,8.43805 -13.91212,7.0974 z m 26.52082,-19.47699 c 0.30027,-0.78248 1.27341,-1.70184 2.16255,-2.04304 1.32812,-0.50964 1.28666,-0.25575 -0.2323,1.42269 -2.17821,2.40688 -2.67736,2.5673 -1.93025,0.62035 z m 25.78359,-2.99742 c -0.32648,-0.85077 0.1267,-5.77254 1.00706,-10.93725 0.88036,-5.16471 1.58634,-13.15964 1.56885,-17.76652 -0.0277,-7.28274 -0.20952,-8.14181 -1.39322,-6.58103 -0.74878,0.9873 -1.67207,3.9123 -2.05175,6.5 -0.46369,3.16018 -1.56579,5.56009 -3.35679,7.30964 -1.46654,1.4326 -3.70463,4.36759 -4.97352,6.52219 -1.2689,2.15461 -4.57851,6.38248 -7.3547,9.39527 -5.41525,5.87676 -5.54465,5.03005 -0.23431,-1.53319 1.78492,-2.20604 4.23264,-6.70604 5.43938,-10 1.20674,-3.29395 3.05161,-6.6742 4.09971,-7.51166 1.17677,-0.94026 2.23487,-3.60529 2.76639,-6.96771 1.31999,-8.35021 0.21681,-9.65982 -5.00502,-5.94155 l -2.90437,2.0681 0,-2.48476 c 0,-1.36662 -0.5625,-2.67469 -1.25,-2.90683 -2.6482,-0.89418 15.93621,-5.94588 23.25,-6.31992 6.34959,-0.32473 7.08561,-0.20633 4.79841,0.77189 C 223.1536,207.75544 222.38396,210.1106 220,227 c -1.12568,7.975 -2.45805,15.625 -2.96082,17 -0.50277,1.375 -1.20189,3.95734 -1.55359,5.73853 -0.73552,3.72502 -2.2281,5.09604 -3.0933,2.84137 z M 194,211 c -0.90129,-0.58246 -1.02463,-0.97549 -0.30902,-0.98469 0.65504,-0.008 1.4691,0.43469 1.80902,0.98469 0.7673,1.24153 0.42112,1.24153 -1.5,0 z m 34.70362,-14.10362 c 0.79095,-0.79095 1.62674,-0.79957 2.95,-0.0304 1.61863,0.94083 1.48249,1.07696 -1.10362,1.10362 -2.15133,0.0222 -2.65121,-0.26838 -1.84638,-1.07321 z m 10.04638,0.44134 c 0.6875,-0.27741 1.8125,-0.27741 2.5,0 0.6875,0.27741 0.125,0.50439 -1.25,0.50439 -1.375,0 -1.9375,-0.22698 -1.25,-0.50439 z M 174.5,175.24529 c -1.65,-0.17937 -4.18661,-0.79145 -5.6369,-1.36018 -3.15576,-1.23753 -2.86461,-3.99887 0.66551,-6.3119 1.27584,-0.83596 2.61728,-2.45751 2.98098,-3.60344 0.36371,-1.14593 1.34116,-1.94542 2.17212,-1.77664 2.53459,0.51481 5.69439,12.05633 3.56829,13.03356 -0.4125,0.1896 -2.1,0.19797 -3.75,0.0186 z m 87.0478,-6.37086 c -1.4465,-1.71906 -2.34822,-3.40656 -2.00383,-3.75 0.70366,-0.7017 5.45603,4.46468 5.45603,5.93133 0,1.54305 -0.67977,1.11352 -3.4522,-2.18133 z m 15.56566,-6.91871 C 273.60086,158.68007 270.18222,156 269.51647,156 c -0.66575,0 -2.21575,-0.87189 -3.44445,-1.93754 -2.12667,-1.84445 -5.07202,-1.8335 -5.07202,0.0189 0,0.47703 -1.31605,1.54789 -2.92456,2.37968 -2.39084,1.23635 -4.6264,1.35294 -12.25,0.63887 C 240.69645,156.6195 234.25,155.61028 231.5,154.8572 c -4.4693,-1.22391 -4.96413,-1.63394 -4.66204,-3.86319 0.18587,-1.37168 1.87337,-4.48031 3.75,-6.90807 1.87662,-2.42776 3.41204,-5.21474 3.41204,-6.1933 0,-0.97855 0.85534,-2.37829 1.90076,-3.11053 2.97235,-2.08191 6.3841,-8.5587 5.82331,-11.05485 -1.36389,-6.07088 -6.66976,-19.11731 -8.10047,-19.91798 C 231.78557,102.78062 231.4155,100 233.11663,100 c 0.61481,0 0.88743,-0.87646 0.60663,-1.950249 -0.30345,-1.160391 0.49428,-3.28666 1.96967,-5.25 3.53524,-4.704408 4.36286,-7.299795 3.35219,-10.512335 C 238.56281,80.754337 237.91396,77.3625 237.60323,74.75 237.06994,70.266335 237.1705,70 239.39669,70 c 3.29752,0 4.82648,2.26717 5.37437,7.969226 0.37003,3.850973 0.004,5.657874 -1.70379,8.421932 -3.0187,4.884348 -2.63355,13.531133 0.67584,15.173322 3.37589,1.67519 6.25689,4.55843 6.25689,6.26177 0,0.83395 0.65098,2.23559 1.44662,3.11476 1.11512,1.2322 1.23517,2.51057 0.52385,5.57874 -1.88274,8.12105 -2.1382,7.90472 11.08549,9.38715 C 275.2716,127.27632 281,130.06903 281,134.65499 281,135.94474 280.76279,137 280.47287,137 c -0.28992,0 -3.59697,-1.60814 -7.349,-3.57364 -5.67454,-2.97261 -7.43777,-3.4581 -10.48392,-2.88664 -4.59565,0.86215 -5.49032,2.18647 -2.29726,3.40047 3.64421,1.38553 4.11195,2.93646 1.21748,4.03693 -3.75988,1.42951 -3.11836,2.6282 1.18983,2.22322 4.18992,-0.39387 9.25,1.16593 9.25,2.85138 0,0.67702 -1.63714,0.98301 -4.25,0.79436 -2.3375,-0.16877 -4.25,0.13431 -4.25,0.67353 0,0.53921 2.3625,2.50351 5.25,4.36509 3.13157,2.01895 5.25,4.11018 5.25,5.18262 0,0.98885 0.84065,2.06472 1.86812,2.39082 2.56413,0.81383 4.76662,3.42343 6.60716,7.82846 0.85336,2.04237 1.43302,3.69347 1.28814,3.66912 -0.14488,-0.0244 -3.13736,-2.72435 -6.64996,-6 z m -0.0379,-9.37531 c -1.2502,-1.33078 -3.57864,-2.96038 -5.17432,-3.62132 C 268.79187,147.67115 267.93552,145 270.63197,145 274.07839,145 282,151.42654 282,154.22251 c 0,1.60304 -2.7315,0.6922 -4.92446,-1.6421 z M 171.36971,136.77945 c -1.36448,-2.30748 -7.06856,-2.98654 -10.44038,-1.2429 -2.70731,1.4 -2.93142,1.38023 -2.95686,-0.26087 -0.0151,-0.97662 -1.5807,-2.90068 -3.47902,-4.27568 -4.28128,-3.10104 -4.88854,-4.81904 -3.51127,-9.93383 1.00759,-3.74191 3.98773,-6.76292 5.33872,-5.41194 0.95622,0.95622 3.6791,-2.35467 3.6791,-4.47361 0,-1.07923 -1.58375,-4.14887 -3.51945,-6.82143 -5.05265,-6.976032 -6.22592,-9.99431 -7.61228,-19.582794 -1.09939,-7.603824 -1.0437,-9.028508 0.51218,-13.102528 3.72561,-9.755382 16.59787,-23.266592 26.56669,-27.885421 9.24221,-4.282168 16.65218,-3.75543 31.52627,2.241044 13.88343,5.597094 17.10447,8.294681 18.22482,15.263082 0.78744,4.897791 1.01455,5.212332 3.8195,5.289921 4.66202,0.128959 5.48227,0.343896 5.48227,1.436558 0,0.564806 -1.02799,0.761044 -2.30618,0.440239 -2.13502,-0.535858 -2.27533,-0.314632 -1.89059,2.980948 0.45986,3.939058 -0.2364,4.38271 -2.98062,1.899225 -1.00918,-0.913295 -1.96505,-1.475795 -2.12416,-1.25 -6.83994,9.706682 -8.01195,12.1271 -7.94716,16.412474 0.0847,5.60376 -1.85677,6.93456 -9.1012,6.238462 -4.51473,-0.433809 -5.35324,-0.191094 -7.80298,2.258646 -1.50958,1.509576 -3.02931,4.039844 -3.37718,5.622824 -1.30959,5.9592 -2.66561,8.01412 -8.24002,12.48696 -5.02534,4.03229 -6.19102,4.54073 -9.47991,4.13499 -5.2715,-0.65034 -4.7605,1.0878 1.5,5.10216 2.8875,1.85153 7.81768,5.01702 10.95595,7.03443 3.13827,2.01741 5.95658,4.07355 6.26291,4.5692 0.31601,0.51132 -3.01767,0.83888 -7.70595,0.75716 -4.5446,-0.0792 -10.57154,0.23567 -13.3932,0.69972 -4.10275,0.67475 -5.30449,0.54916 -6,-0.62704 z M 267.54426,79.046194 C 265.93911,77.370787 263.80036,76 262.79147,76 c -1.00889,0 -2.32764,-1.082664 -2.93056,-2.40592 -0.88718,-1.947159 -0.74008,-2.894569 0.77144,-4.968575 1.02721,-1.409461 2.43015,-2.576796 3.11765,-2.59408 1.72396,-0.04334 1.57033,-2.520685 -0.25,-4.031425 -1.96436,-1.63027 -1.97408,-6 -0.0134,-6 2.04767,0 8.39447,4.689755 12.01335,8.876856 2.67731,3.097691 3,4.178384 3,10.047095 l 0,6.576049 -4.01865,0.296194 c -3.37799,0.248973 -4.48392,-0.189437 -6.93709,-2.75 z"
         style="fill:#283547" />
      <path
         inkscape:connector-curvature="0"
         id="path83682"
         d="m 185.68209,625.03138 c -2.09984,-0.40624 -4.55877,-1.47949 -5.46428,-2.385 C 178.6893,621.11787 178.83313,621 182.2267,621 c 4.83777,0 5.62619,-1.60699 1.84441,-3.75933 -3.32499,-1.89236 -4.16419,-5.23111 -1.32111,-5.25598 0.9625,-0.008 2.41617,-0.43656 3.23039,-0.95141 1.17339,-0.74197 0.75864,-1.23957 -2,-2.39955 -2.67223,-1.12364 -3.80716,-1.19297 -4.88762,-0.29859 -2.21953,1.83726 -23.65949,1.54664 -25.45736,-0.34508 -1.45669,-1.53273 -1.06763,-6.6623 1.14576,-15.10641 0.56542,-2.15709 0.58554,-4.2639 0.0499,-5.22111 -0.49394,-0.88261 -0.8464,-3.75526 -0.78325,-6.38365 0.0632,-2.62839 -0.19783,-6.24139 -0.57998,-8.02889 -0.40052,-1.87351 -0.29245,-3.25 0.25518,-3.25 0.52249,0 2.21078,-2.49192 3.75175,-5.53759 l 2.80176,-5.53759 -1.64537,-6.21241 C 157.72617,549.29558 156.3414,541.55 155.55386,535.5 c -0.78754,-6.05 -2.35933,-13.87112 -3.49287,-17.38027 -2.34333,-7.25432 -2.82713,-19.95359 -0.83603,-21.94469 0.96661,-0.96661 0.96661,-1.63864 0,-3.18643 -1.69393,-2.7124 -1.53218,-4.98861 0.3545,-4.98861 1.27384,0 1.42988,-0.62884 0.80645,-3.25 -1.12438,-4.72734 -0.88551,-6.449 2.01761,-14.54218 l 2.61579,-7.29218 -2.25966,-5.20782 C 152.71215,452.98893 152.5,450.93525 152.5,435.8332 c 0,-9.16674 0.29896,-16.9657 0.66435,-17.33102 0.3654,-0.36532 1.70015,-0.10988 2.96611,0.56764 2.06072,1.10286 2.51475,0.93402 4.33565,-1.61234 1.11864,-1.56432 3.50044,-4.4447 5.2929,-6.40085 3.15606,-3.44429 3.30609,-3.49532 4.75,-1.6155 0.82004,1.06762 1.49099,2.89937 1.49099,4.07055 0,4.03854 4.02194,20.93883 5.28319,22.20008 0.88139,0.88139 1.10016,3.21981 0.72238,7.72181 -0.29802,3.55165 -0.36892,6.97637 -0.15755,7.61048 0.47787,1.43362 3.55615,-5.29806 6.65074,-14.54405 1.28858,-3.85 3.34763,-9.025 4.57567,-11.5 1.22804,-2.475 2.59303,-5.85 3.03331,-7.5 0.44029,-1.65 1.32628,-5.025 1.96887,-7.5 1.65871,-6.38868 5.99887,-17 6.9532,-17 1.31725,0 7.51698,-18.78654 6.52657,-19.77695 -0.30601,-0.30601 -0.685,-0.36888 -0.8422,-0.13972 C 203.40612,377.9058 200,384.63855 200,386.355 c 0,1.22217 -0.9,3.98741 -2,6.145 -1.1,2.15759 -2,4.45612 -2,5.10785 0,1.35646 -6.57149,7.39215 -8.04837,7.39215 -0.53832,0 -1.76016,-0.42282 -2.7152,-0.9396 -0.95504,-0.51678 -3.04416,-1.21797 -4.64249,-1.55822 -2.59889,-0.55323 -2.74556,-0.77913 -1.38759,-2.1371 0.83517,-0.83517 3.39804,-1.77059 5.69527,-2.07871 2.29723,-0.30812 4.72165,-1.31574 5.38758,-2.23915 0.66594,-0.92341 1.94213,-1.95112 2.83597,-2.28379 1.99616,-0.74293 2.06786,-8.97081 0.0954,-10.94306 -1.03923,-1.0391 -1.7389,-0.71987 -3.72636,1.70016 -2.0565,2.5041 -2.60777,2.74015 -3.45522,1.47947 -1.26339,-1.87945 -1.28814,-3.64433 -0.10876,-7.7566 1.24048,-4.3253 -0.0466,-4.1113 -4.55052,0.7566 -2.20115,2.37902 -4.61039,4 -5.94515,4 -2.04099,0 -2.19563,-0.3622 -1.70769,-4 0.64093,-4.77852 -0.58251,-5.14681 -4.18636,-1.26022 -1.90178,2.05099 -2.54047,3.82056 -2.54047,7.03872 0,3.60713 0.62038,4.96403 3.85504,8.43176 3.79056,4.06367 3.8282,4.18016 2.25,6.96385 -2.61537,4.61309 -4.69503,4.5347 -9.10642,-0.34327 -2.15413,-2.38196 -3.93505,-5.09598 -3.95761,-6.03115 -0.0225,-0.93517 -0.65504,-2.06017 -1.40553,-2.5 C 156.96585,390.32119 154,384.69014 154,382.49863 c 0,-0.88037 1.47114,-2.21537 3.2692,-2.96664 2.0089,-0.83938 4.15386,-2.94 5.56399,-5.44898 2.03054,-3.61286 2.71922,-4.08576 5.98079,-4.10687 3.8738,-0.0251 6.41858,-0.57333 17.42708,-3.75458 5.39583,-1.55929 6.95112,-1.69493 7.79369,-0.67969 1.24886,1.50479 4.19475,1.26963 4.7442,-0.37872 0.21305,-0.63915 -0.32506,-1.43548 -1.19579,-1.76961 -2.19564,-0.84255 -2.00194,-1.65856 1.18573,-4.99523 1.52289,-1.59407 3.48738,-3.92455 4.36554,-5.17885 1.16856,-1.66908 3.17441,-2.53822 7.48111,-3.24159 5.66065,-0.9245 6.16832,-0.82094 13.34784,2.72264 4.10486,2.02603 9.05486,3.95331 11,4.28284 2.78787,0.4723 3.47538,1.01384 3.24738,2.5579 -0.15908,1.07731 -0.30168,3.19625 -0.31688,4.70875 -0.0152,1.5125 -0.44755,2.75 -0.96076,2.75 C 236.4199,367 236,366.30917 236,365.46482 c 0,-1.25456 -0.38776,-1.32767 -2.12125,-0.39993 -1.33316,0.71349 -4.11956,0.88559 -7.5,0.46323 C 221.09376,364.8678 221,364.90092 221,367.42804 c 0,2.01712 0.49617,2.57196 2.3,2.57196 1.265,0 2.77734,-0.47734 3.36076,-1.06076 1.18634,-1.18634 8.55248,-1.54352 10.24607,-0.49682 0.60124,0.37159 1.09317,1.59128 1.09317,2.71043 0,1.87855 -0.40136,1.97962 -5.22614,1.31605 -4.78966,-0.65875 -5.11147,-0.58062 -3.85322,0.93548 1.18558,1.42853 1.07999,1.96605 -0.77387,3.93939 C 226.96605,378.60059 226,380.1624 226,380.81445 226,381.4665 225.36713,382 224.59362,382 c -0.94346,0 -1.2227,-0.70238 -0.84836,-2.13388 0.4036,-1.54338 0.17015,-1.99787 -0.84362,-1.64237 -0.7709,0.27033 -1.33914,1.23057 -1.26275,2.13388 0.20464,2.41987 -2.00851,1.9973 -3.15176,-0.60179 -0.54292,-1.23429 -1.73618,-2.38488 -2.65169,-2.55687 -2.14571,-0.4031 -3.28309,3.09607 -1.86664,5.74274 0.59378,1.10949 0.79493,3.15148 0.44699,4.53777 -0.79108,3.15192 0.25472,3.17732 4.08421,0.0992 2.66294,-2.14046 3.18372,-2.24651 4.63519,-0.94394 0.89936,0.80709 2.92436,1.56768 4.5,1.69021 2.08482,0.16211 2.88269,0.7608 2.93049,2.19891 0.10559,3.17697 -0.60515,3.6803 -2.99018,2.11757 -2.42437,-1.58851 -3.86003,-1.12149 -4.85595,1.57963 -0.80999,2.19684 1.72777,4.77894 4.69689,4.77894 1.25047,0 3.11294,0.92747 4.13881,2.06105 1.5963,1.76389 1.65469,2.19422 0.40499,2.98469 -2.16568,1.36984 -2.5233,1.20865 -3.86843,-1.74359 -0.9027,-1.9812 -1.44525,-2.34831 -2.04247,-1.38198 -1.5246,2.46685 0.39502,6.38167 3.68173,7.5084 4.47222,1.53314 4.73306,2.11088 2.41973,5.35965 -2.38674,3.35187 -2.91213,8.4795 -1.28354,12.52688 1.39575,3.46872 1.43021,4.6849 0.13274,4.6849 -0.55,0 -1,-0.675 -1,-1.5 0,-1.69817 -1.56593,-2.01136 -2.5,-0.5 -1.10383,1.78604 -2.5,1.05748 -2.5,-1.30458 C 225,425.67557 219.1889,418 217.65969,418 c -0.31382,0 0.71385,3.0375 2.28371,6.75 2.81511,6.65736 3.41378,13.18101 1.60157,17.45211 -0.39721,0.93617 -0.44355,2.15297 -0.10299,2.70401 0.34057,0.55105 0.33365,2.13966 -0.0154,3.53026 l -0.63458,2.52836 -1.89535,-2.23237 c -1.83693,-2.16356 -1.94004,-2.17468 -3.34529,-0.36061 -1.30361,1.68286 -1.163,2.23792 1.39332,5.5 1.86376,2.3783 3.06243,5.35076 3.47944,8.62824 l 0.63616,5 -2.48219,-2.75 c -2.71426,-3.00711 -5.15186,-3.68753 -4.18511,-1.16821 0.33385,0.86998 0.62113,2.33248 0.63841,3.25 0.0449,2.38335 4.83237,5.70442 6.22118,4.31561 0.77041,-0.77041 1.41593,-0.61539 2.26335,0.54352 0.65204,0.89173 2.2652,1.70923 3.58479,1.81667 2.67105,0.21747 2.81249,2.76756 0.30901,5.57115 -0.77536,0.86831 -1.40975,2.69478 -1.40975,4.05883 0,3.4277 -6.32707,13.70057 -10.79957,17.5346 -2.95511,2.53324 -3.45133,3.42687 -2.46367,4.43675 0.99405,1.01643 1.69355,0.83546 3.56445,-0.92216 1.28023,-1.20272 2.52369,-2.18677 2.76324,-2.18679 0.23955,-2e-5 0.37496,2.13748 0.30091,4.75 -0.22833,8.05537 0.63119,11.29822 3.25948,12.29749 1.30634,0.49667 2.37516,1.30138 2.37516,1.78824 0,0.48686 1.2375,2.6355 2.75,4.77475 l 2.75,3.88955 0.32479,25.14325 c 0.30415,23.54587 0.19749,25.39276 -1.67889,29.07076 -1.44133,2.82524 -1.85123,5.06406 -1.4605,7.97711 0.33076,2.46606 0.10744,4.31888 -0.57112,4.73825 -2.00736,1.24062 -1.18471,2.80512 1.16491,2.21541 1.51414,-0.38003 3.23362,0.18899 5.12259,1.6952 2.42837,1.93632 2.74238,2.72718 2.15131,5.41831 -1.14348,5.20623 -6.44588,5.30557 -8.08175,0.1514 -0.94908,-2.99035 -4.985,-2.40138 -7.47131,1.09031 -1.1749,1.65 -2.72545,3 -3.44565,3 -0.7202,0 -1.85427,0.65646 -2.52016,1.4588 -1.30481,1.57221 -0.51951,1.90143 6.96581,2.92029 1.925,0.26202 5.525,0.93932 8,1.5051 5.5736,1.27413 14.56398,1.40764 16.81574,0.24971 0.92634,-0.47635 4.46606,-1.1059 7.86603,-1.39898 4.75882,-0.41023 6.30607,-0.20899 6.72175,0.87425 1.02786,2.67857 -12.43066,7.3738 -26.72588,9.32379 -8.68556,1.18479 -42.02676,1.25316 -47.99555,0.0984 z m 45.97283,-23.48825 C 231.32924,600.69441 230.59865,600 230.03138,600 c -1.46553,0 -1.28265,2.74359 0.21862,3.27976 1.69882,0.60672 2.1094,0.0992 1.40492,-1.73663 z M 191,601.89301 c 0,-0.60884 -0.70015,-0.83831 -1.5559,-0.50993 -0.85574,0.32838 -3.1607,-0.0735 -5.12212,-0.89302 -4.51554,-1.88671 -5.90931,-1.90268 -4.3718,-0.0501 C 181.83952,602.71647 191,603.92107 191,601.893 Z m -14.4939,-74.5218 c -0.3563,-8.94353 -0.82741,-11.38324 -1.97624,-10.2344 -0.81279,0.81279 0.72746,20.82219 1.56307,20.30576 0.43716,-0.27019 0.62309,-4.80229 0.41317,-10.07136 z M 215,497.44098 C 215,496.64844 215.3634,496 215.80755,496 c 1.64427,0 4.54261,-8.63072 4.77759,-14.22673 0.22528,-5.36491 0.0701,-5.8217 -2.16901,-6.38368 -3.42567,-0.85978 -5.05514,0.036 -5.85375,3.21788 -0.38223,1.52295 -1.45264,3.33189 -2.37868,4.01986 -1.40893,1.04673 -1.47971,1.58497 -0.4337,3.2982 0.6875,1.12603 1.25,2.95344 1.25,4.0609 0,1.12317 0.6633,2.01357 1.5,2.01357 1.99471,0 1.90032,1.90017 -0.21024,4.23231 -1.44196,1.59335 -1.48867,2.02672 -0.29774,2.76276 1.71567,1.06034 3.00798,0.39267 3.00798,-1.55409 z m -37.70332,-7.90956 C 175.30844,486.79965 174,486.3109 174,488.3 c 0,1.69116 2.03419,3.7 3.74668,3.7 1.00739,0 0.89401,-0.62196 -0.45,-2.46858 z M 189.88347,471.75 c -0.11232,-0.6875 0.33632,-2.5651 0.99698,-4.17245 1.54512,-3.75924 0.80522,-5.57755 -2.26961,-5.57755 -1.90918,0 -2.59722,0.66152 -3.10832,2.98853 -0.36102,1.6437 -1.07177,3.24525 -1.57946,3.55902 -1.59216,0.98401 -1.0114,2.48139 1.32694,3.42129 3.22669,1.29697 4.86843,1.21943 4.63347,-0.21884 z m 8.63172,-22.77937 C 200.04107,446.0199 199.81817,444 197.96666,444 196.98081,444 194,449.22294 194,450.95034 c 0,2.22923 3.02439,0.90317 4.51519,-1.97971 z M 215,414.55902 c 0,-0.24254 -0.45,-0.7191 -1,-1.05902 -0.55,-0.33992 -1,-0.14148 -1,0.44098 0,0.58246 0.45,1.05902 1,1.05902 0.55,0 1,-0.19844 1,-0.44098 z M 215.5,396 c -0.48382,-0.78284 -1.05907,-0.84093 -1.72574,-0.17426 -0.55,0.55 -0.67341,1.52841 -0.27426,2.17426 0.48382,0.78284 1.05907,0.84093 1.72574,0.17426 0.55,-0.55 0.67341,-1.52841 0.27426,-2.17426 z m -37.0826,-20.86635 c 0.29449,-0.4765 -0.35395,-1.67124 -1.44098,-2.65499 -1.9056,-1.72454 -1.97642,-1.71739 -1.97642,0.19969 0,2.95237 2.15382,4.49982 3.4174,2.4553 z M 217,360.08726 c 0,-1.0133 -0.68587,-2.4116 -1.52417,-3.10732 -1.7243,-1.43104 -1.63196,-1.49851 -3.32452,2.42942 -1.00102,2.32309 -1.00231,3.0647 -0.006,3.68022 1.76947,1.09359 4.85505,-0.8145 4.85505,-3.00232 z m -64.40163,14.77536 c -0.23392,-0.74944 -0.67927,-2.83152 -0.98968,-4.62684 l -0.56438,-3.26423 2.88946,1.4942 c 2.12353,1.09812 2.75171,2.02098 2.36978,3.48147 -0.73393,2.80654 -3.14663,4.70497 -3.70518,2.9154 z M 217.51008,211.01631 C 216.77253,209.82294 217.70865,208 219.05902,208 c 1.2168,0 1.22469,2.70662 0.0101,3.45729 -0.512,0.31644 -1.21356,0.11799 -1.55902,-0.44098 z m 19.99844,-56.00252 c -0.5337,-0.86355 3.65509,-5.1934 8.39829,-8.68111 2.09371,-1.53952 4.09319,0.0996 4.09319,3.35551 0,1.34381 0.46583,3.31371 1.03518,4.37755 0.97748,1.82643 0.64627,1.93426 -5.94098,1.93426 -3.83689,0 -7.25045,-0.4438 -7.58568,-0.98621 z M 253,150.16052 C 253,149.38634 257.30531,147 258.70204,147 c 0.33436,0 -0.20655,0.9 -1.20204,2 -1.82799,2.01991 -4.5,2.709 -4.5,1.16052 z M 229,149 c 0,-0.55 0.47656,-1 1.05902,-1 0.58246,0 0.7809,0.45 0.44098,1 -0.33992,0.55 -0.81648,1 -1.05902,1 C 229.19844,150 229,149.55 229,149 Z m 3.24953,-1.25 c 0.22891,-0.6875 1.26459,-1.4144 2.3015,-1.61534 1.6311,-0.31608 1.70455,-0.14754 0.54469,1.25 -1.5862,1.91126 -3.44015,2.14923 -2.84619,0.36534 z M 237,145.20735 C 237,143.69441 239.88833,141 241.51016,141 c 1.96277,0 2.95144,-8.13957 1.67677,-13.80455 -1.64263,-7.30027 -7.775,-23.55814 -9.04576,-23.98173 -2.04845,-0.68281 -1.19811,-2.04137 0.92949,-1.48499 1.90161,0.49728 2.01399,0.23941 1.3765,-3.158712 -0.5575,-2.971714 -0.16568,-4.671197 1.99016,-8.632188 1.47638,-2.712593 2.38969,-5.408716 2.02958,-5.991383 -0.36011,-0.582667 -0.98467,-3.490692 -1.38793,-6.462277 -0.57528,-4.239284 -0.42793,-5.520018 0.68417,-5.946771 2.12287,-0.814624 3.06085,0.143078 4.3481,4.439557 1.05413,3.518365 0.91244,4.378636 -1.47243,8.939613 -3.50314,6.69962 -3.4721,13.702894 0.10675,24.083431 0.28443,0.825 0.63057,4.46773 0.7692,8.09496 0.35581,9.31008 0.94201,10.73154 4.17101,10.11428 2.29046,-0.43785 2.53319,-0.25265 1.82558,1.39288 -0.44886,1.04384 -1.02178,3.36038 -1.27314,5.14788 -0.51128,3.63582 0.57576,4.02413 6.50491,2.32367 1.77645,-0.50948 3.46378,-0.54791 3.74963,-0.0854 0.28584,0.46251 0.0939,0.99185 -0.42644,1.17633 -0.52038,0.18448 -1.98569,1.87116 -3.25623,3.74819 -1.67514,2.47476 -3.13465,3.46739 -5.31008,3.61147 -1.65,0.10928 -5.1375,0.5472 -7.75,0.97315 -3.17688,0.51796 -4.75,0.42191 -4.75,-0.29005 z m -63.09618,-10.1922 c -0.87948,-1.3036 -2.89785,-2.28193 -5.40382,-2.61931 -5.09055,-0.68535 -16.19899,-5.16903 -16.82076,-6.78933 -0.26028,-0.6783 -0.23769,-2.46551 0.0502,-3.97157 0.47158,-2.46687 0.83308,-2.67637 3.64701,-2.11349 14.97744,2.996 33.08832,11.29948 31.2242,14.31567 -0.30354,0.49115 -2.25037,1.13438 -4.32628,1.42941 -2.07591,0.29502 -4.49266,0.82733 -5.37056,1.1829 -1.01243,0.41006 -2.10958,-0.11448 -3,-1.43428 z M 272,130.5 c -2.28544,-1.30647 -2.3233,-1.43217 -0.44113,-1.46456 1.13238,-0.0195 2.93238,0.62525 4,1.43276 2.61743,1.97972 -0.10872,2.00408 -3.55887,0.0318 z m -91.23866,-12.072 c -0.26747,-0.26746 -3.21883,-0.64664 -6.55858,-0.8426 -7.30944,-0.42889 -11.04347,-2.74857 -14.21278,-8.82936 -1.22003,-2.34082 -3.47113,-5.83802 -5.00243,-7.77156 -3.111,-3.928182 -4.55605,-8.525304 -5.55593,-17.675042 -0.89004,-8.144609 0.0292,-12.52071 3.38453,-16.112622 1.51382,-1.620548 4.02161,-4.864365 5.57287,-7.208482 C 164.38792,50.923387 174.06542,44 180.73749,44 c 1.84901,0 4.7027,-0.69339 6.34154,-1.540867 3.39681,-1.756557 5.6849,-1.084541 3.84708,1.129895 -1.29372,1.558846 -0.66122,1.770092 4.31809,1.442176 1.63645,-0.107769 4.55222,1.039492 7.22311,2.842056 3.988,2.691467 6.67251,2.780016 5.05746,0.166822 -0.34974,-0.565892 0.6609,-0.522717 2.46209,0.105183 1.68045,0.585806 3.53283,1.957273 4.11641,3.047705 0.75597,1.412543 1.71154,1.819342 3.32336,1.414801 3.65252,-0.916724 6.84675,3.339818 7.63181,10.16995 0.70254,6.112174 -0.24894,8.993432 -5.54905,16.803574 C 217.70252,82.24387 217,84.607158 217,88.022915 c 0,5.409722 -0.83195,5.939481 -9.36517,5.96343 -4.21471,0.01183 -5.21745,0.432183 -7.5,3.144035 -1.44916,1.721709 -4.09733,4.56616 -5.88483,6.321 -3.23404,3.17497 -4.18377,5.54862 -2.22006,5.54862 0.56646,0 0.004,1.395 -1.25,3.09999 -2.20935,3.00402 -9.03276,7.31386 -10.0186,6.32801 z M 159,68.881966 c 0,-0.55 -0.45,-0.721885 -1,-0.381966 -0.55,0.339919 -1,1.068034 -1,1.618034 0,0.55 0.45,0.721885 1,0.381966 0.55,-0.339919 1,-1.068034 1,-1.618034 z M 162.80963,65.25 c -0.40593,-2.107843 -2.18068,-1.974934 -2.63295,0.197179 C 159.98803,66.353163 160.53927,67 161.5,67 c 1.02996,0 1.52043,-0.655397 1.30963,-1.75 z M 174,62.5 c 0,-0.825 -0.675,-1.5 -1.5,-1.5 -1.56157,0 -1.98397,1.1827 -0.83333,2.333333 C 172.8173,64.483967 174,64.061574 174,62.5 Z m 96.01057,18.012735 c -0.67888,-0.817996 -0.96709,-2.183664 -0.64047,-3.034819 0.93683,-2.441334 -1.32885,-11.560846 -4.04657,-16.287713 l -2.47792,-4.309798 3.64223,2.309798 c 2.11176,1.339215 4.67249,4.305757 6.09404,7.059797 1.3485,2.6125 3.11923,4.75 3.93497,4.75 1.10839,0 1.48315,1.233915 1.48315,4.883369 0,4.218907 -0.30615,4.965413 -2.25,5.486345 -3.40874,0.913506 -4.39189,0.766708 -5.73943,-0.856979 z m -41.42762,-7.37852 c -0.43077,-0.697003 -0.51316,-1.537338 -0.18309,-1.867413 0.89497,-0.894961 1.87077,0.421303 1.38739,1.871444 -0.33872,1.016175 -0.57427,1.015386 -1.2043,-0.004 z"
         style="fill:#1d232e" />
    </g>
  </g>
</svg>
